<?xml version="1.0" standalone="no"?>
<!DOCTYPE svg PUBLIC "-//W3C//DTD SVG 20010904//EN"
 "http://www.w3.org/TR/2001/REC-SVG-20010904/DTD/svg10.dtd">
<svg version="1.0" xmlns="http://www.w3.org/2000/svg"
 width="329.000000pt" height="329.000000pt" viewBox="0 0 329.000000 329.000000"
 preserveAspectRatio="xMidYMid meet">
<metadata>
Created by potrace 1.14, written by Peter Selinger 2001-2017
</metadata>
<g transform="translate(0.000000,329.000000) scale(0.100000,-0.100000)"
fill="#000000" stroke="none">
<path d="M1552 2823 c-12 -17 -19 -33 -15 -37 3 -3 1 -6 -6 -6 -7 0 -9 -4 -6
-10 3 -5 1 -10 -6 -10 -6 0 -9 -8 -6 -20 3 -11 2 -18 -3 -15 -11 7 -22 -24
-13 -38 4 -7 -1 -6 -10 2 -20 16 -23 1 -4 -18 10 -11 8 -11 -13 -1 -24 13 -24
12 -10 -5 14 -17 13 -18 -4 -12 -16 6 -17 5 -7 -7 10 -12 7 -18 -19 -31 -17
-9 -36 -13 -43 -8 -7 4 -5 -2 3 -12 9 -11 10 -16 3 -11 -8 4 -23 -4 -38 -20
l-26 -28 11 29 c11 28 10 28 -8 12 -22 -20 -36 -22 -26 -4 5 8 2 8 -9 -2 -19
-15 -23 -26 -5 -15 7 4 8 3 4 -4 -4 -7 -14 -12 -22 -12 -8 0 -17 -7 -20 -15
-4 -8 -12 -15 -20 -15 -7 0 -18 -9 -24 -19 -6 -13 -18 -18 -30 -16 -15 3 -24
-3 -30 -20 -5 -14 -12 -25 -15 -25 -4 0 -3 5 0 10 3 6 -1 10 -10 10 -12 0 -15
-5 -11 -17 4 -10 4 -14 0 -11 -4 4 -16 3 -28 -3 -19 -9 -19 -9 -4 4 15 12 16
17 4 32 -9 13 -15 15 -20 6 -4 -6 -12 -9 -17 -6 -5 4 -19 -1 -31 -9 -16 -11
-25 -12 -34 -5 -10 8 -12 6 -9 -10 2 -12 0 -19 -5 -16 -5 3 -11 1 -15 -5 -3
-5 -13 -10 -21 -10 -9 0 -12 5 -8 12 5 7 3 8 -5 4 -7 -5 -10 -14 -7 -21 2 -7
-2 -16 -10 -19 -7 -3 -13 -2 -13 2 3 19 -2 32 -13 32 -9 0 -9 -3 -1 -11 13
-13 6 -39 -9 -39 -5 0 -7 4 -3 9 3 5 1 13 -5 16 -6 4 -10 3 -9 -2 1 -4 1 -17
0 -27 -1 -16 -4 -17 -13 -8 -7 7 -21 12 -32 12 -10 0 -16 -3 -13 -7 4 -3 -1
-12 -11 -19 -13 -9 -20 -10 -31 -1 -12 9 -13 9 -7 0 4 -7 -2 -20 -14 -30 -11
-10 -20 -23 -20 -30 0 -6 -10 -19 -22 -27 -12 -9 -17 -16 -10 -16 10 0 10 -5
1 -22 -7 -13 -12 -24 -11 -25 1 -2 2 -12 2 -23 0 -14 -5 -18 -17 -13 -15 6
-16 5 -3 -9 8 -9 19 -13 24 -10 5 3 6 0 2 -6 -4 -6 -13 -9 -20 -6 -18 7 -30
-12 -15 -22 8 -5 9 -3 4 6 -5 9 -4 11 3 6 9 -5 9 -13 2 -27 -6 -11 -8 -25 -4
-31 4 -6 3 -8 -3 -5 -6 4 -14 0 -17 -9 -3 -8 -2 -13 3 -9 5 3 8 -3 6 -12 -2
-10 -4 -24 -4 -31 -1 -7 -5 -10 -11 -7 -5 3 -10 1 -10 -4 0 -6 4 -11 9 -11 11
0 9 -39 -3 -58 -4 -7 -4 -11 1 -10 8 3 13 -5 13 -21 0 -5 -15 -24 -33 -42 -17
-18 -25 -28 -17 -22 13 9 15 6 15 -22 0 -18 -3 -31 -6 -29 -12 7 -18 -23 -7
-34 6 -6 7 -16 2 -24 -13 -20 -13 -37 -2 -45 7 -4 8 -1 3 7 -5 9 -4 11 4 6 9
-6 9 -11 -1 -24 -9 -11 -9 -13 -1 -9 7 5 16 -1 23 -12 7 -14 7 -22 0 -26 -6
-4 -9 -1 -8 6 2 6 -4 14 -12 16 -12 4 -12 3 -2 -5 8 -5 14 -13 15 -18 1 -5 5
-8 9 -7 4 2 12 -6 18 -17 9 -16 8 -19 -6 -13 -12 4 -15 3 -10 -5 4 -7 13 -12
19 -12 7 0 21 -15 32 -33 11 -17 28 -45 38 -62 10 -16 15 -21 12 -10 -7 24 4
14 19 -17 6 -13 22 -24 34 -26 25 -4 28 -12 10 -30 -7 -7 -9 -12 -6 -12 4 0
14 7 22 16 9 9 16 11 16 4 0 -6 5 -8 10 -5 6 4 10 3 9 -2 -5 -17 24 -63 35
-55 12 9 79 -21 70 -31 -3 -3 3 -3 15 0 23 6 23 22 1 40 -13 10 -13 12 3 18
14 6 15 10 5 24 -10 13 -10 14 2 4 20 -18 30 -16 24 5 -4 11 -3 13 3 5 5 -7
18 -11 28 -9 29 5 68 -12 59 -25 -4 -8 -3 -9 4 -5 22 13 34 -5 15 -21 -17 -13
-17 -13 3 -4 25 12 35 6 27 -17 -4 -14 -3 -14 5 -3 5 7 16 10 23 7 8 -4 6 -1
-3 7 -10 8 -18 18 -18 22 0 5 9 0 19 -9 20 -18 18 -52 -2 -39 -6 3 -7 1 -3 -6
5 -8 12 -9 20 -2 16 14 35 -18 26 -44 -4 -11 -4 -27 1 -36 5 -9 7 -26 4 -38
-2 -11 0 -23 5 -26 5 -3 7 3 5 15 -2 11 0 22 5 25 4 3 6 -11 4 -30 -1 -19 1
-35 7 -35 16 0 10 -23 -13 -49 -13 -14 -16 -20 -8 -13 21 18 35 15 19 -5 -8
-9 -9 -14 -3 -10 7 4 14 -3 16 -17 4 -17 1 -23 -9 -19 -7 3 -10 9 -7 14 3 5
-2 6 -11 3 -14 -6 -14 -8 2 -19 17 -13 17 -14 -2 -32 -14 -14 -33 -18 -68 -17
-26 1 -51 5 -55 9 -4 5 1 5 11 2 9 -4 17 -2 17 3 0 6 -7 10 -16 10 -8 0 -13 4
-9 10 3 5 12 7 19 4 8 -3 17 -1 20 4 3 5 -2 9 -12 8 -9 0 -16 5 -14 12 1 8 -2
11 -8 7 -6 -3 -8 -11 -5 -16 4 -5 1 -9 -5 -9 -23 0 -3 26 35 44 25 13 34 21
25 24 -8 3 -32 16 -52 28 -21 13 -48 24 -60 24 -43 0 -58 3 -58 14 0 6 -5 4
-10 -4 -8 -12 -10 -12 -10 -1 0 10 -3 11 -13 2 -10 -7 -17 -7 -24 0 -8 8 -13
8 -17 0 -11 -17 -26 -13 -27 7 0 14 -2 14 -9 -3 -6 -13 -9 -15 -9 -5 -1 13 -2
13 -11 0 -6 -10 -10 -11 -10 -2 0 6 -5 12 -11 12 -5 0 -8 -4 -5 -8 3 -5 -1 -9
-9 -9 -8 0 -12 5 -8 10 5 8 -7 6 -57 -11 -12 -4 -13 -2 -2 9 18 19 15 33 -3
15 -9 -8 -23 -12 -32 -9 -12 5 -14 3 -8 -8 8 -12 6 -12 -8 0 -9 7 -14 18 -10
24 3 6 1 7 -6 3 -6 -4 -9 -11 -6 -16 3 -4 -1 -13 -9 -19 -11 -9 -14 -9 -12 1
0 7 -3 13 -9 13 -5 0 -9 -3 -7 -8 1 -4 -11 -7 -27 -7 -16 0 -37 -3 -45 -6 -11
-4 -15 -2 -13 7 2 8 2 11 0 6 -3 -4 -10 -4 -15 -1 -6 4 -8 2 -4 -4 3 -6 2 -13
-4 -17 -5 -3 -10 -1 -10 4 0 6 -5 11 -11 11 -5 0 -8 -4 -5 -9 7 -12 -12 -18
-46 -16 -15 1 -25 -2 -22 -7 3 -4 10 -6 15 -3 5 4 9 -1 9 -9 0 -17 -20 -17
-32 -1 -4 6 -8 2 -8 -7 0 -21 -16 -24 -24 -5 -3 6 -3 2 0 -10 4 -18 2 -22 -11
-17 -10 4 -22 -1 -32 -15 -12 -18 -18 -20 -29 -10 -8 6 -17 9 -21 5 -3 -3 -1
-6 5 -6 6 0 9 -7 6 -15 -6 -14 -8 -13 -20 2 -13 17 -14 17 -8 0 7 -19 -11 -24
-20 -4 -4 6 -4 2 -2 -10 3 -18 0 -21 -23 -18 -14 2 -20 2 -13 -1 20 -9 14 -27
-7 -21 -13 3 -18 0 -15 -8 3 -7 -7 -22 -22 -34 -15 -12 -24 -24 -20 -28 9 -10
66 -11 60 -1 -3 4 0 8 5 8 6 0 11 -4 11 -9 0 -6 9 -9 19 -8 11 0 17 5 15 9 -3
5 -10 5 -16 2 -6 -4 -8 -3 -5 3 4 6 19 9 34 7 15 -1 32 0 37 4 24 15 54 10 65
-11 11 -21 11 -21 5 3 -6 23 -6 24 11 10 11 -9 16 -10 11 -3 -5 9 0 13 16 14
77 4 98 6 104 12 4 4 14 1 22 -6 13 -10 15 -9 10 4 -4 9 -1 16 8 16 7 0 11 -4
8 -9 -3 -4 0 -8 5 -8 6 0 11 5 11 11 0 5 5 7 10 4 8 -5 7 -12 -2 -23 -12 -15
-11 -16 4 -3 10 7 16 17 13 21 -3 5 -1 11 5 15 5 3 10 1 10 -4 0 -6 5 -11 11
-11 5 0 8 4 5 8 -6 10 50 10 60 0 4 -4 1 -14 -5 -22 -11 -13 -9 -15 8 -11 12
2 21 -1 21 -6 0 -6 4 -8 9 -4 5 3 16 -1 23 -9 8 -8 29 -13 46 -11 18 1 35 -2
39 -8 3 -6 1 -7 -5 -3 -7 4 -12 2 -12 -3 0 -14 17 -14 25 -1 3 6 11 10 16 10
6 0 7 -4 4 -10 -3 -5 -1 -10 4 -10 6 0 11 5 11 11 0 5 4 8 9 5 5 -4 11 -1 13
5 2 7 13 6 33 -2 42 -17 54 -19 61 -8 3 5 10 9 16 9 6 0 6 -6 -2 -15 -7 -9
-10 -18 -6 -22 3 -3 6 -1 6 5 0 7 9 12 21 12 11 0 18 -4 14 -9 -3 -5 0 -13 6
-17 7 -4 9 -3 5 4 -3 6 -2 13 3 16 9 6 26 -22 22 -37 -1 -5 3 -6 9 -2 8 5 8
11 0 20 -9 11 -7 12 9 8 22 -6 26 -13 13 -29 -4 -5 -3 -6 3 -2 5 5 16 8 24 8
11 0 10 -4 -5 -15 -18 -14 -17 -15 8 -6 20 8 29 6 38 -4 7 -8 17 -12 22 -9 5
3 12 -3 15 -15 3 -12 10 -21 15 -21 5 0 7 4 4 9 -5 8 15 8 34 1 3 -1 10 -2 15
-1 6 1 2 -5 -8 -13 -12 -9 -14 -16 -8 -21 6 -3 11 -2 11 3 0 6 7 13 16 16 10
4 13 2 8 -6 -5 -8 -2 -9 10 -5 9 4 15 3 12 -2 -3 -5 1 -12 10 -15 8 -3 12 -2
9 4 -4 6 2 7 18 1 14 -6 28 -7 31 -4 3 4 6 0 6 -8 1 -10 4 -8 11 4 8 14 8 22
0 30 -13 13 -15 30 -2 22 5 -3 13 0 17 6 4 8 3 9 -4 5 -12 -7 -35 27 -25 37 3
4 0 13 -7 22 -14 17 -14 17 22 19 15 1 31 6 35 10 4 5 3 6 -4 2 -6 -3 -15 -1
-19 6 -4 7 -4 10 1 6 4 -4 15 -2 23 5 13 10 14 9 7 -2 -6 -11 -4 -13 8 -8 19
7 32 -8 16 -19 -8 -5 -9 -3 -4 6 5 9 4 11 -3 6 -15 -9 -15 -11 5 -27 9 -8 14
-9 10 -3 -4 7 0 15 9 18 8 3 12 2 9 -4 -3 -6 0 -10 7 -10 9 0 9 -3 -2 -10 -12
-8 -11 -10 6 -10 12 0 26 -11 34 -25 16 -31 30 -33 22 -3 -4 16 -2 19 8 13 10
-6 11 -4 4 6 -5 8 -7 38 -6 68 2 36 -2 57 -10 63 -7 4 -8 8 -2 8 5 0 9 13 8
29 -1 24 1 28 14 23 14 -5 15 -4 2 10 -8 9 -18 14 -21 12 -3 -2 -5 7 -5 19 1
12 -7 30 -18 40 -21 17 -21 17 -1 11 13 -4 9 2 -10 15 -16 11 -24 21 -17 21 9
0 10 5 4 18 -5 9 -8 43 -7 75 2 31 -1 59 -6 62 -4 3 -5 13 -2 22 5 12 3 14 -8
8 -11 -6 -11 -5 -2 5 6 7 9 20 6 29 -4 14 -3 14 6 1 8 -12 10 -11 8 7 0 12 -5
19 -9 17 -4 -3 -8 2 -8 10 0 9 5 16 11 16 5 0 7 5 3 11 -4 8 -9 7 -15 -2 -4
-7 -11 -10 -15 -6 -4 4 -3 12 4 19 8 8 6 16 -10 30 -12 10 -17 18 -12 18 5 0
0 8 -11 17 l-20 16 20 -7 c15 -6 17 -4 8 5 -6 6 -9 19 -6 28 4 11 1 10 -11 -4
-11 -14 -14 -15 -10 -4 3 10 -2 19 -12 23 -14 5 -14 9 -3 23 8 9 9 14 3 10 -7
-4 -17 0 -24 8 -11 13 -10 15 6 10 13 -4 12 -2 -3 6 -13 7 -23 16 -23 21 0 5
4 6 10 3 6 -3 7 1 3 10 -4 12 -8 13 -13 5 -4 -7 -13 -9 -20 -5 -10 6 -8 12 6
23 17 13 17 14 1 9 -12 -5 -28 4 -53 29 -25 27 -38 33 -47 26 -16 -14 -42 1
-33 19 5 9 3 9 -6 -1 -12 -14 -61 -24 -53 -11 1 3 -7 6 -20 6 -16 0 -20 -4
-14 -11 5 -6 5 -15 1 -19 -4 -5 -2 -5 4 -2 15 9 26 -17 13 -30 -7 -7 -5 -16 6
-27 9 -9 12 -16 6 -16 -6 0 -20 10 -32 23 l-21 22 11 -22 c13 -25 3 -30 -19
-10 -8 6 -6 2 4 -11 11 -12 16 -25 13 -29 -4 -3 -7 -1 -7 6 0 7 -7 11 -15 8
-8 -4 -17 -2 -20 3 -4 6 -11 10 -16 10 -6 0 -7 -4 -4 -10 3 -6 -1 -7 -10 -4
-12 5 -13 9 -4 20 7 8 9 17 5 21 -3 3 -6 2 -6 -4 0 -14 -49 -23 -57 -10 -3 5
-1 7 5 3 6 -3 13 -2 16 3 7 11 -13 9 -33 -3 -11 -7 -13 -5 -7 9 5 15 4 16 -8
6 -11 -9 -20 -10 -35 -1 -26 13 -26 16 -2 16 11 0 17 -4 15 -8 -3 -4 -1 -8 5
-8 5 0 9 9 8 20 -1 21 -13 27 -19 9 -5 -16 -33 -1 -58 33 -12 17 -18 28 -11
24 19 -12 12 5 -11 26 -13 11 -17 16 -9 12 10 -5 13 -3 8 9 -4 11 -2 14 9 10
7 -3 14 0 14 6 0 6 -3 10 -7 10 -21 -3 -34 2 -28 11 4 6 10 8 15 5 4 -3 14 3
21 13 12 15 12 16 -2 5 -22 -18 -33 -3 -11 14 9 8 12 12 5 9 -7 -4 -11 1 -10
13 1 16 4 18 16 8 12 -10 13 -9 7 1 -10 17 -15 61 -7 60 21 -2 32 4 28 15 -7
20 28 63 38 47 5 -9 4 -11 -3 -6 -7 4 -12 2 -12 -3 0 -6 4 -11 9 -11 16 0 23
20 12 33 -7 9 -5 13 9 13 10 0 17 -3 14 -7 -2 -4 3 -10 11 -13 9 -3 18 1 21 9
4 8 10 12 16 9 5 -3 17 0 26 8 19 16 31 17 49 5 7 -4 20 0 30 10 17 16 30 19
58 13 6 -1 14 -2 19 -1 5 1 6 -5 3 -13 -4 -10 -1 -13 8 -9 8 3 13 9 10 13 -6
10 15 8 33 -3 6 -5 12 -13 12 -20 0 -6 -6 -3 -12 5 -12 16 -14 16 -28 0 -13
-14 -12 -15 3 -9 9 3 19 2 23 -4 4 -6 11 -6 19 1 11 10 13 8 10 -9 -3 -19 -2
-20 18 -9 20 10 21 9 9 -5 -11 -13 -10 -15 13 -13 15 2 29 -3 35 -13 7 -12 9
-13 10 -2 0 8 3 12 6 9 3 -3 -1 -16 -8 -28 -11 -18 -11 -22 4 -31 10 -5 15
-18 13 -29 -2 -11 2 -20 8 -20 8 0 7 -3 -2 -9 -11 -7 -10 -10 6 -15 10 -3 19
-16 20 -28 1 -11 8 -25 15 -29 10 -7 10 -9 -2 -9 -12 -1 -11 -3 3 -11 9 -5 17
-17 17 -25 0 -8 4 -13 9 -9 6 3 8 -8 6 -26 -4 -26 -2 -29 11 -19 12 11 13 10
9 -3 -4 -8 -2 -18 4 -22 6 -3 11 -13 11 -21 0 -9 -5 -12 -12 -8 -6 4 -8 3 -4
-4 3 -6 15 -9 26 -7 12 2 17 -1 14 -9 -3 -8 1 -20 8 -27 7 -8 14 -21 16 -29 7
-30 22 -34 22 -7 0 15 6 27 13 27 7 0 8 3 2 8 -11 7 -13 60 -4 77 3 6 5 22 4
37 -1 15 2 25 7 22 4 -3 8 -1 8 5 0 5 -4 12 -9 15 -11 7 -9 25 3 45 6 9 5 12
-2 7 -6 -3 -14 -2 -17 4 -4 6 -3 10 2 9 18 -3 28 2 17 9 -21 13 -27 68 -9 86
9 9 13 16 8 16 -5 0 -14 -5 -19 -10 -7 -7 -11 -6 -11 5 0 8 5 15 10 15 5 0 3
8 -4 17 -12 14 -12 16 0 9 9 -6 12 -5 9 5 -3 8 -12 13 -19 11 -11 -3 -11 -1
-2 9 6 6 9 18 6 27 -4 10 -2 13 5 8 8 -5 10 -2 6 8 -3 9 -9 14 -13 12 -3 -2
-7 10 -8 27 -2 38 -6 58 -16 74 -5 7 0 10 15 6 18 -4 20 -2 9 5 -8 6 -15 22
-16 36 0 20 2 23 14 13 12 -10 13 -9 4 8 -9 15 -8 22 4 31 13 9 13 13 3 19 -9
5 -11 4 -6 -3 4 -7 3 -12 -2 -12 -5 0 -12 11 -14 25 -4 21 -3 23 9 14 11 -9
12 -8 7 5 -3 9 -11 16 -16 16 -6 0 -4 8 3 17 9 11 10 14 2 9 -9 -5 -11 -2 -7
8 3 9 11 13 18 9 6 -3 5 0 -2 8 -11 12 -14 12 -23 -1 -9 -13 -10 -13 -6 1 3 9
0 22 -6 29 -9 10 -9 11 2 5 11 -6 13 -3 9 13 -4 15 -2 22 8 22 8 0 11 -7 8
-17 -3 -10 1 -8 8 5 8 12 18 19 23 15 5 -4 3 1 -5 11 -18 23 -17 28 7 37 13 6
14 8 3 8 -13 1 -15 28 -15 180 1 99 -2 187 -5 197 -5 15 -10 13 -28 -13z m-74
-290 c-30 -33 -47 -83 -20 -61 13 11 15 11 9 -4 -4 -11 -2 -18 6 -19 8 0 8 -2
1 -5 -7 -3 -9 -18 -7 -37 3 -18 5 -44 6 -59 0 -16 5 -28 10 -28 6 0 8 -3 4 -6
-3 -3 -2 -17 3 -30 7 -19 6 -24 -5 -24 -9 0 -14 8 -12 21 1 12 -4 23 -11 25
-7 1 -8 0 -2 -3 5 -2 10 -9 10 -14 0 -6 -5 -7 -11 -3 -8 4 -8 0 0 -15 11 -19
23 -26 44 -22 4 1 0 -10 -9 -24 -15 -24 -15 -25 2 -26 18 0 18 -1 1 -8 -20 -7
-21 -19 -6 -38 7 -7 6 -14 -1 -18 -5 -3 -10 -11 -10 -17 0 -6 7 -5 17 3 15 12
16 12 8 -1 -13 -20 -13 -32 -3 -47 5 -6 5 -14 -2 -18 -5 -3 -10 -11 -10 -16 0
-6 4 -8 8 -5 4 2 8 -4 9 -14 1 -11 -2 -22 -8 -25 -5 -3 -6 0 -3 8 3 8 -2 20
-11 27 -10 8 -15 9 -15 1 0 -6 4 -11 8 -11 5 0 9 -13 10 -30 0 -16 -4 -30 -9
-30 -6 0 -7 5 -3 12 4 7 3 8 -5 4 -16 -10 -2 -29 16 -22 21 8 39 -4 22 -15
-12 -8 -11 -11 1 -19 12 -8 12 -10 1 -10 -11 0 -11 -3 0 -17 12 -14 12 -16 0
-8 -11 6 -13 4 -8 -9 4 -11 3 -15 -4 -11 -6 4 -8 13 -5 20 5 15 -27 49 -37 39
-4 -4 -5 3 -2 14 2 13 -3 26 -13 32 -12 6 -13 9 -3 10 7 0 11 6 7 15 -6 17 9
21 17 5 3 -6 4 -5 3 2 -2 7 -9 13 -17 13 -8 0 -13 -5 -12 -12 2 -7 -4 -10 -12
-7 -8 4 -15 10 -15 16 0 5 -4 7 -9 3 -5 -3 -12 -1 -16 5 -4 6 -12 7 -18 3 -7
-4 -7 0 1 10 8 9 12 22 9 29 -4 8 -6 7 -6 -4 -1 -19 -31 -26 -31 -7 0 5 5 7
10 4 15 -9 12 1 -4 14 -11 9 -16 9 -22 0 -5 -8 -3 -9 6 -4 9 6 11 4 5 -4 -5
-9 -10 -10 -18 -2 -7 7 -6 15 4 27 8 10 9 15 3 11 -7 -4 -15 0 -18 9 -3 8 -11
12 -16 9 -6 -4 -19 -1 -28 7 -15 12 -16 11 -3 -5 8 -10 20 -16 27 -13 7 3 15
-2 18 -10 7 -18 -2 -17 -34 1 -31 18 -43 19 -34 3 6 -10 5 -10 -8 -1 -8 7 -19
9 -23 5 -5 -4 -5 2 -1 12 5 16 4 17 -9 6 -8 -7 -12 -17 -8 -24 4 -7 1 -7 -7 1
-11 10 -11 15 0 28 7 8 10 18 6 22 -3 3 -6 1 -6 -5 0 -6 -8 -9 -17 -6 -16 5
-16 4 -3 -6 13 -10 11 -11 -8 -7 -12 3 -20 1 -16 -4 3 -5 0 -9 -6 -9 -6 0 -9
-4 -6 -8 3 -5 -7 -8 -22 -7 -17 1 -32 10 -40 26 -13 23 -13 22 -7 -11 7 -34 6
-35 -10 -12 -9 12 -13 28 -10 35 4 6 0 4 -8 -6 -9 -10 -19 -18 -24 -17 -4 1
-9 -7 -10 -17 -3 -16 -2 -15 5 1 5 12 11 15 15 9 9 -14 -13 -31 -35 -28 -21 4
-24 -11 -5 -18 9 -4 9 -6 0 -6 -7 -1 -19 11 -28 27 l-16 27 5 -26 c7 -30 -17
-59 -30 -38 -5 8 -3 9 6 4 9 -6 11 -4 5 5 -5 9 -4 11 3 6 8 -5 10 -1 6 9 -6
14 -8 13 -21 -5 -8 -11 -19 -18 -24 -15 -5 4 -9 1 -9 -5 0 -7 7 -10 15 -6 8 3
15 1 15 -3 0 -15 -27 -20 -39 -8 -8 8 -14 8 -23 -1 -7 -7 -8 -12 -2 -12 5 0 2
-5 -6 -11 -13 -9 -13 -10 0 -6 8 2 14 10 13 16 -4 16 12 14 27 -5 11 -12 11
-15 0 -12 -7 2 -16 -8 -20 -22 -6 -21 -8 -23 -15 -7 -4 9 -12 17 -18 17 -7 0
-7 -4 1 -12 19 -19 15 -51 -4 -44 -13 5 -14 3 -7 -6 14 -20 3 -92 -15 -94 -7
-1 -14 -3 -17 -4 -3 -1 -9 -3 -14 -4 -5 0 -12 -4 -15 -8 -3 -5 -3 -6 1 -3 3 3
13 -1 21 -8 11 -8 14 -8 9 0 -4 6 -3 14 3 18 5 3 11 -1 11 -9 3 -29 4 -34 11
-42 4 -4 3 -14 -4 -21 -9 -11 -9 -17 3 -24 10 -8 7 -9 -11 -4 -23 6 -24 5 -5
-6 30 -19 48 -39 35 -39 -6 0 -8 -5 -5 -10 4 -6 12 -7 18 -3 7 4 6 0 -2 -10
-7 -9 -10 -17 -5 -17 5 0 2 -5 -6 -10 -12 -7 -10 -9 7 -7 15 1 19 5 13 12 -6
8 -5 12 4 12 20 0 13 -29 -10 -39 -14 -6 -11 -7 9 -3 30 6 61 -10 51 -26 -3
-5 2 -10 10 -10 9 -1 24 -2 34 -3 9 -1 22 -5 29 -9 6 -4 13 -1 16 5 3 7 4 3 4
-9 -1 -23 -17 -33 -17 -11 0 6 -3 8 -7 5 -3 -4 -12 -2 -20 4 -7 6 -13 9 -13 5
0 -10 63 -46 80 -45 12 0 11 2 -2 7 -13 5 -15 11 -8 22 7 10 10 11 10 3 0 -7
5 -13 11 -13 5 0 7 6 3 13 -5 8 -2 8 9 -2 17 -14 24 -26 9 -17 -5 3 -9 -2 -9
-11 0 -12 5 -11 19 7 11 14 18 17 18 8 0 -8 -5 -19 -12 -26 -9 -9 -9 -12 0
-12 7 0 12 5 12 11 0 8 5 8 15 -1 12 -10 18 -10 29 -1 11 10 17 8 25 -6 6 -11
11 -13 11 -5 0 7 5 10 12 6 7 -4 8 -3 4 5 -4 6 -12 8 -18 5 -6 -4 -8 -2 -4 4
7 12 -12 11 -32 -2 -7 -4 -16 -5 -19 -2 -4 3 -1 6 6 6 7 0 10 4 7 9 -8 13 46
6 75 -9 20 -11 22 -11 13 1 -9 11 -6 20 14 39 13 14 22 20 18 13 -3 -6 0 -13
6 -16 7 -2 9 -8 5 -13 -4 -5 -12 -3 -16 5 -7 10 -9 10 -14 -1 -10 -28 33 -17
48 12 10 19 20 27 30 24 8 -4 12 -11 8 -17 -4 -6 -1 -7 6 -2 8 4 9 11 4 16
-12 12 -55 21 -49 10 3 -4 1 -13 -3 -20 -6 -9 -10 -7 -14 8 -4 18 3 26 18 19
2 -2 11 6 20 17 10 13 14 15 13 5 -2 -8 3 -14 10 -12 8 1 11 -2 8 -7 -4 -5 -2
-12 4 -16 6 -4 8 -11 5 -16 -4 -5 2 -9 12 -9 15 0 16 -2 3 -11 -12 -9 -11 -10
7 -6 24 5 40 -7 23 -18 -5 -3 -10 -11 -10 -17 0 -7 4 -7 14 1 11 9 12 6 8 -14
-3 -18 0 -25 9 -23 8 2 13 -6 14 -21 0 -14 8 -27 20 -32 11 -4 16 -8 12 -8 -5
-1 -5 -6 -1 -13 4 -7 8 -26 7 -42 0 -17 5 -34 11 -38 7 -5 6 -8 -4 -8 -13 0
-13 -1 0 -11 12 -8 10 -9 -9 -4 -16 5 -21 4 -17 -4 4 -6 14 -11 22 -11 18 0
18 -17 -1 -36 -8 -9 -15 -21 -15 -27 0 -7 5 -4 11 6 15 26 27 21 21 -9 -3 -18
-1 -25 6 -20 6 3 14 2 17 -4 4 -6 3 -10 -2 -9 -19 3 -23 -2 -13 -20 7 -14 7
-22 -2 -27 -7 -5 -8 -3 -3 7 5 8 5 11 0 7 -5 -5 -9 -21 -9 -37 -1 -22 2 -27
12 -19 13 12 15 7 6 -16 -3 -9 -10 -14 -14 -11 -5 3 -12 0 -16 -6 -4 -7 -3 -9
4 -5 6 3 13 2 17 -4 6 -10 -6 -14 -35 -11 -13 2 -13 0 -1 -8 17 -11 55 5 46
19 -3 5 0 12 6 16 7 4 9 3 5 -4 -3 -6 -2 -13 4 -17 5 -3 10 -15 10 -26 0 -10
4 -19 9 -19 5 0 12 -7 15 -16 3 -8 2 -12 -4 -9 -11 7 -14 -8 -3 -19 10 -10 11
-46 1 -40 -5 3 -16 0 -24 -7 -12 -10 -15 -10 -12 2 2 8 -3 13 -10 11 -7 -1
-12 5 -10 14 2 10 -7 20 -20 25 -15 6 -21 5 -17 -1 3 -6 13 -10 21 -10 8 0 12
-5 9 -10 -4 -6 -11 -8 -16 -5 -5 4 -9 1 -9 -4 0 -6 -12 -11 -27 -11 -22 0 -25
3 -13 10 12 7 10 9 -7 7 -18 -1 -20 -4 -10 -16 10 -12 8 -13 -13 -7 -19 6 -21
5 -10 -3 8 -6 24 -8 35 -5 15 4 14 1 -5 -10 -14 -9 -21 -15 -16 -16 5 0 2 -8
-7 -18 -10 -10 -15 -21 -12 -24 3 -2 -11 -4 -30 -3 -20 1 -38 -2 -42 -8 -3 -6
-1 -7 5 -3 6 3 13 2 16 -3 3 -5 -3 -11 -13 -14 -16 -4 -18 0 -15 22 3 14 5 34
5 44 0 10 5 15 11 11 7 -4 8 -2 4 5 -9 14 -29 3 -23 -13 3 -7 -1 -22 -8 -35
-10 -20 -13 -21 -18 -7 -4 9 -12 16 -19 16 -7 0 -18 12 -25 26 -7 15 -10 24
-6 20 3 -3 12 -1 20 5 7 6 13 8 13 3 0 -5 5 -2 11 6 9 13 10 13 6 0 -2 -8 -10
-14 -16 -12 -7 1 -9 -2 -5 -9 5 -8 3 -9 -7 -4 -12 8 -12 6 0 -8 14 -18 26 -23
16 -8 -8 14 50 52 61 41 6 -6 15 -5 24 1 13 9 12 10 -2 5 -10 -3 -20 -1 -24 5
-4 7 -10 7 -18 0 -9 -8 -13 -7 -13 4 0 8 4 12 9 9 4 -3 11 2 14 10 3 9 11 16
16 16 6 0 5 -6 -2 -15 -9 -10 -9 -15 -1 -15 11 0 15 13 12 37 -1 6 7 17 16 25
10 7 19 26 20 43 l1 30 -13 -25 c-7 -14 -11 -28 -9 -31 2 -4 -3 -10 -11 -13
-13 -4 -13 -2 -5 14 5 10 7 27 4 37 -5 15 -4 15 5 3 8 -12 11 -7 11 24 0 25
-6 43 -17 52 -16 12 -15 13 12 10 17 -2 22 -1 12 1 -9 2 -14 9 -11 15 5 7 1 9
-9 5 -9 -3 -19 -1 -23 5 -4 7 -3 8 4 4 7 -4 12 -1 13 6 0 7 2 21 4 30 2 9 -4
23 -13 30 -15 12 -16 11 -3 -4 7 -10 9 -18 3 -18 -14 0 -23 28 -11 36 5 3 17
0 25 -7 12 -10 13 -9 8 5 -5 13 -13 16 -33 11 -14 -4 -23 -3 -19 1 4 4 2 14
-5 22 -8 10 -8 13 -1 9 7 -4 15 0 18 9 3 8 2 13 -3 10 -5 -3 -8 5 -8 19 0 14
3 22 8 19 5 -3 6 2 3 11 -6 14 -8 14 -19 -2 -10 -13 -10 -20 -2 -25 8 -5 6 -8
-5 -8 -21 0 -21 0 -8 36 9 24 9 25 -5 14 -8 -7 -15 -8 -15 -2 0 5 10 17 23 26
l22 17 -22 -11 c-21 -10 -27 -7 -24 13 2 14 -17 7 -23 -9 -5 -12 -10 -14 -20
-5 -7 6 -16 9 -19 6 -4 -3 -4 -2 -1 3 3 4 7 5 8 2 4 -8 36 21 36 33 0 6 -7 2
-16 -9 -14 -18 -15 -18 -9 6 6 23 5 24 -6 5 -7 -11 -13 -21 -15 -23 -1 -2 -16
4 -33 12 -19 10 -32 12 -36 6 -8 -13 -25 -3 -25 13 0 8 3 8 9 -2 5 -8 11 -9
15 -3 3 6 0 12 -6 15 -17 5 -39 -3 -33 -12 2 -4 -2 -8 -10 -8 -8 0 -11 5 -8
10 4 6 0 8 -10 4 -11 -4 -14 -2 -10 9 3 7 0 14 -7 14 -6 0 -8 5 -4 12 4 6 3 8
-4 5 -5 -4 -8 -16 -5 -26 6 -24 -11 -35 -36 -21 -12 6 -22 6 -26 1 -9 -16 -45
-8 -42 9 1 10 -6 15 -21 15 -13 0 -30 9 -38 19 -8 11 -14 16 -14 10 0 -5 -5
-2 -11 6 -8 12 -9 10 -4 -9 5 -16 4 -21 -4 -17 -6 4 -11 16 -11 28 0 14 -5 18
-16 14 -12 -4 -14 -1 -9 14 7 22 -10 28 -19 8 -3 -7 -3 1 0 17 4 20 3 26 -4
17 -7 -11 -11 -9 -15 8 -4 15 -10 19 -19 14 -7 -4 -10 -4 -6 1 4 4 2 17 -4 29
-7 11 -13 23 -13 26 0 3 -6 15 -13 26 -11 21 -6 38 9 28 4 -2 6 -11 2 -19 -3
-8 0 -15 6 -15 6 0 10 6 8 13 -1 6 4 11 11 9 8 -1 11 2 7 8 -3 6 -11 7 -17 4
-7 -5 -9 -1 -5 9 4 12 2 14 -11 10 -9 -3 -14 -3 -10 2 4 4 2 15 -5 23 -9 13
-9 14 1 8 6 -4 12 -2 12 3 0 6 5 11 11 11 8 0 8 -5 -1 -15 -18 -22 -6 -18 14
4 13 14 14 21 5 27 -8 5 -10 3 -4 -6 5 -9 4 -11 -4 -6 -8 6 -9 12 -2 20 6 7 8
16 4 20 -4 4 0 4 10 0 9 -3 14 -10 11 -15 -9 -15 3 -10 16 7 11 12 11 15 0 12
-7 -2 -14 2 -17 9 -3 8 3 11 15 8 16 -3 19 1 14 18 -5 20 -6 20 -13 1 -4 -10
-8 -15 -8 -10 -1 5 -7 3 -15 -3 -12 -10 -13 -8 -9 8 3 12 8 19 12 17 3 -2 12
3 20 11 12 13 11 14 -9 8 -15 -5 -20 -4 -16 4 4 6 1 11 -6 11 -10 0 -10 2 0 9
18 11 18 12 3 40 -7 13 -8 21 -3 17 6 -3 14 4 18 16 4 13 12 27 18 31 6 5 0 6
-14 3 -14 -3 -19 -3 -12 0 6 3 9 11 5 17 -4 7 0 8 11 4 27 -11 37 1 24 28 -6
13 -15 22 -21 18 -6 -3 -7 -1 -3 6 4 6 12 9 17 6 5 -4 9 1 9 10 0 9 4 14 9 10
5 -3 12 -1 15 4 7 10 -13 9 -31 -2 -8 -5 -10 -1 -7 15 3 13 6 32 5 43 0 15 2
17 9 6 7 -12 11 -12 24 -2 13 11 17 11 22 -3 3 -9 11 -16 17 -16 6 0 7 3 4 7
-4 3 -1 13 6 22 10 14 10 14 -4 4 -13 -11 -18 -9 -28 14 -11 24 -10 25 4 13 8
-7 16 -11 18 -9 1 2 7 13 14 24 6 11 17 19 23 17 7 -2 10 3 7 12 -4 10 -1 13
7 10 7 -3 21 7 30 21 9 14 21 23 27 19 6 -3 13 4 16 16 4 16 8 18 14 8 7 -11
11 -10 19 2 5 8 10 10 10 5 0 -6 9 -11 20 -12 13 -1 18 2 13 10 -4 7 0 6 10
-2 16 -13 22 -8 18 13 -1 5 5 4 13 -4 9 -7 16 -9 16 -4 0 5 6 0 12 -10 9 -15
7 -22 -8 -33 -10 -7 -13 -13 -7 -13 15 0 36 27 29 39 -4 5 0 16 8 24 8 8 12
18 8 22 -4 5 -1 5 6 1 6 -4 18 -4 25 1 23 14 46 13 51 -5 3 -9 4 -5 2 10 -2
16 3 33 10 39 8 6 14 8 14 4 0 -5 9 0 20 10 18 16 25 14 21 -8 -1 -5 3 -5 9
-2 6 4 9 14 5 22 -5 14 -3 14 12 2 15 -12 16 -12 11 2 -5 13 0 16 23 14 17 -2
40 5 54 17 13 10 28 18 32 18 4 -1 9 4 12 11 2 8 -1 9 -10 4 -8 -5 -11 -4 -6
0 4 5 18 10 30 12 37 5 49 12 41 24 -4 7 -3 9 4 5 6 -3 13 -2 17 4 3 5 9 10
12 10 4 0 -5 -12 -19 -27z m-708 -344 c0 -15 -18 -19 -23 -6 -3 8 1 14 9 14 8
0 14 -4 14 -8z m268 -104 c-3 -3 -9 2 -12 12 -6 14 -5 15 5 6 7 -7 10 -15 7
-18z m-304 -40 c3 -8 1 -15 -4 -15 -6 0 -10 5 -10 11 0 5 -5 7 -12 3 -7 -4 -8
-3 -4 4 10 16 23 15 30 -3z m790 -63 c3 -5 -1 -9 -9 -9 -8 0 -12 4 -9 9 3 4 7
8 9 8 2 0 6 -4 9 -8z m-204 -328 c0 -2 -9 0 -20 6 -11 6 -20 13 -20 16 0 2 9
0 20 -6 11 -6 20 -13 20 -16z m-130 -34 c0 -5 -2 -10 -4 -10 -3 0 -8 5 -11 10
-3 6 -1 10 4 10 6 0 11 -4 11 -10z m-337 -175 c10 5 15 1 14 -12 -1 -10 4 -17
11 -15 6 1 12 -3 12 -10 0 -6 8 -4 19 6 13 12 21 14 26 6 3 -6 3 -10 -2 -9
-20 4 -27 -2 -13 -12 13 -9 12 -10 -2 -5 -11 3 -18 0 -18 -7 0 -9 -3 -9 -9 1
-4 7 -14 12 -21 10 -8 -2 -14 4 -15 12 0 8 -8 14 -17 14 -10 -1 -16 3 -15 10
1 6 -3 10 -9 9 -6 -1 -11 5 -11 13 0 12 3 12 17 -1 10 -9 24 -13 33 -10z m-88
-44 c-6 -5 -25 10 -25 20 0 5 6 4 14 -3 8 -7 12 -15 11 -17z m440 -30 c3 -5 1
-12 -5 -16 -5 -3 -10 1 -10 9 0 18 6 21 15 7z m3 -186 c-3 -3 -9 2 -12 12 -6
14 -5 15 5 6 7 -7 10 -15 7 -18z m82 -9 c0 -3 -4 -8 -10 -11 -5 -3 -10 -1 -10
4 0 6 5 11 10 11 6 0 10 -2 10 -4z m7 -101 c0 -8 -4 -12 -9 -9 -5 3 -6 10 -3
15 9 13 12 11 12 -6z m-715 -39 c7 4 8 2 4 -5 -9 -13 -26 -5 -25 12 0 9 2 8 6
-1 2 -6 10 -9 15 -6z m33 5 c-3 -6 11 -8 37 -5 24 3 54 7 67 9 13 1 32 -6 43
-17 20 -20 20 -20 13 4 -6 22 -5 22 9 5 15 -19 11 -51 -5 -41 -5 3 -6 -1 -3
-9 3 -8 2 -17 -3 -20 -4 -3 -9 6 -10 20 -1 26 -33 69 -33 45 0 -7 4 -12 9 -12
15 0 20 -38 5 -44 -8 -3 -11 0 -7 9 3 8 -2 18 -11 21 -9 3 -14 10 -11 14 3 5
0 12 -6 16 -7 4 -9 3 -6 -4 5 -6 0 -8 -12 -5 -22 6 -38 -14 -23 -29 6 -6 12
-6 17 3 5 8 4 10 -3 5 -7 -4 -12 -2 -12 4 0 6 8 10 18 8 9 -2 16 -9 15 -16 -2
-7 4 -9 15 -5 18 7 17 5 -12 -17 -11 -8 -17 -10 -13 -4 4 7 -2 12 -18 12 -14
0 -22 -5 -18 -11 3 -6 1 -7 -6 -3 -6 4 -8 12 -5 18 4 7 2 8 -4 4 -16 -10 -15
6 1 24 10 12 9 12 -3 3 -18 -14 -46 -1 -36 16 4 6 9 11 12 11 3 0 3 -4 -1 -9z
m210 -11 c-3 -4 4 -10 15 -13 16 -4 18 -2 10 12 -7 14 -5 17 10 16 11 -1 23
-4 26 -8 10 -9 26 -9 21 1 -3 4 10 7 29 8 28 1 31 -1 17 -11 -15 -11 -13 -12
10 -12 17 0 24 4 20 11 -4 6 1 5 10 -3 18 -15 23 -26 7 -16 -5 3 -10 2 -10 -4
0 -6 -8 -8 -17 -4 -19 7 -18 5 11 -17 13 -10 17 -10 12 -2 -4 6 -2 12 3 12 14
0 13 -11 -3 -32 -7 -10 -17 -14 -21 -10 -5 4 -5 1 -1 -6 6 -11 11 -11 24 0 10
8 13 8 9 1 -4 -6 -4 -13 0 -16 5 -2 3 -2 -4 -1 -6 2 -14 -3 -17 -11 -3 -9 0
-12 10 -8 7 3 14 1 14 -4 0 -5 -33 -9 -74 -9 -41 0 -75 2 -74 5 2 27 -4 41
-14 35 -7 -4 -10 -4 -6 1 4 4 0 14 -9 23 -14 14 -14 17 3 24 18 7 18 8 -1 5
-21 -2 -28 -36 -10 -50 6 -5 4 -7 -5 -4 -8 2 -14 12 -12 22 2 10 -1 14 -7 10
-6 -3 -11 -2 -11 4 0 5 5 13 10 16 6 3 8 17 6 30 -3 17 -1 22 10 18 8 -3 12
-9 9 -13z m-305 -24 c0 7 17 10 43 9 55 -3 54 -2 61 -21 9 -23 -3 -37 -20 -23
-11 9 -21 9 -39 1 -14 -6 -33 -8 -42 -5 -16 6 -17 5 -3 -13 14 -18 14 -18 -2
-5 -15 11 -18 11 -18 0 0 -11 -2 -11 -10 1 -8 12 -13 13 -30 2 -11 -7 -20 -9
-19 -5 3 21 -2 27 -12 13 -9 -13 -10 -13 -6 0 2 8 8 15 13 15 25 2 54 18 48
27 -4 7 -2 8 4 4 7 -4 12 -1 12 6 0 9 3 9 10 -2 5 -8 10 -10 10 -4z m244 -118
c-3 -5 -11 -5 -18 1 -7 6 -17 7 -22 3 -4 -4 -3 0 4 9 6 9 8 20 4 25 -4 5 3 0
15 -10 13 -10 20 -23 17 -28z m36 26 c0 -8 -19 -13 -24 -6 -3 5 1 9 9 9 8 0
15 -2 15 -3z m361 -51 c13 -16 12 -17 -3 -4 -10 7 -18 15 -18 17 0 8 8 3 21
-13z m172 -73 c6 -8 8 -12 3 -8 -5 4 -16 3 -25 -2 -13 -6 -17 -4 -17 10 0 20
21 20 39 0z"/>
<path d="M1425 2501 c-3 -5 -2 -12 3 -15 5 -3 9 1 9 9 0 17 -3 19 -12 6z"/>
<path d="M1380 2468 c0 -5 8 -8 18 -6 10 2 26 -8 39 -25 19 -25 22 -27 20 -9
0 11 -4 19 -8 16 -4 -2 -12 3 -17 13 -10 17 -52 26 -52 11z"/>
<path d="M1367 2449 c7 -7 15 -10 18 -7 3 3 -2 9 -12 12 -14 6 -15 5 -6 -5z"/>
<path d="M1306 2438 c3 -4 9 -8 15 -8 5 0 9 4 9 8 0 5 -7 9 -15 9 -8 0 -12 -4
-9 -9z"/>
<path d="M1351 2433 c7 -12 15 -20 18 -17 3 2 -3 12 -13 22 -17 16 -18 16 -5
-5z"/>
<path d="M1395 2431 c-3 -6 3 -14 13 -20 14 -7 19 -6 19 4 0 7 -7 11 -15 7
-10 -3 -13 -1 -8 6 4 7 5 12 2 12 -3 0 -7 -4 -11 -9z"/>
<path d="M1230 2415 c-7 -8 -16 -13 -20 -10 -5 3 -11 1 -14 -4 -12 -20 12 -20
32 0 21 19 27 29 18 29 -2 0 -9 -7 -16 -15z"/>
<path d="M1304 2408 c9 -5 23 -5 32 0 12 6 7 9 -16 9 -23 0 -28 -3 -16 -9z"/>
<path d="M1270 2400 c0 -6 7 -10 15 -10 8 0 15 2 15 4 0 2 -7 6 -15 10 -8 3
-15 1 -15 -4z"/>
<path d="M1348 2382 c4 -11 1 -13 -8 -7 -9 5 -11 4 -6 -3 10 -16 14 -15 25 6
7 14 6 19 -4 19 -7 0 -11 -7 -7 -15z"/>
<path d="M1446 2386 c3 -8 1 -17 -5 -21 -6 -3 -11 -12 -11 -18 0 -7 5 -4 11 6
6 9 15 15 21 11 6 -4 6 2 -1 15 -13 24 -23 29 -15 7z"/>
<path d="M1228 2373 c7 -3 16 -2 19 1 4 3 -2 6 -13 5 -11 0 -14 -3 -6 -6z"/>
<path d="M1123 2353 c-13 -9 -23 -23 -22 -32 0 -12 2 -11 9 4 6 14 9 15 10 5
1 -9 5 -5 11 9 8 19 12 21 24 11 9 -7 15 -8 15 -2 0 17 -24 20 -47 5z"/>
<path d="M1310 2351 c0 -6 4 -12 8 -15 5 -3 9 1 9 9 0 8 -4 15 -9 15 -4 0 -8
-4 -8 -9z"/>
<path d="M1443 2330 c-11 -16 -10 -18 2 -14 8 4 15 12 15 20 0 19 -3 18 -17
-6z"/>
<path d="M1235 2330 c-3 -5 -1 -10 4 -10 6 0 11 5 11 10 0 6 -2 10 -4 10 -3 0
-8 -4 -11 -10z"/>
<path d="M1036 2323 c-11 -11 -6 -23 8 -23 8 0 17 4 20 9 7 10 -19 23 -28 14z"/>
<path d="M966 2308 c3 -5 10 -6 15 -3 13 9 11 12 -6 12 -8 0 -12 -4 -9 -9z"/>
<path d="M994 2298 c-13 -16 -14 -19 -2 -10 13 10 17 10 21 0 3 -7 4 -3 4 10
-1 12 -2 22 -3 22 0 0 -9 -10 -20 -22z"/>
<path d="M926 2303 c-4 -5 -12 -8 -17 -8 -5 0 -10 -4 -11 -10 -2 -5 -13 -19
-27 -31 l-23 -20 25 -17 c22 -14 25 -14 21 -2 -4 8 -14 15 -23 15 -10 0 -2 12
24 35 38 32 63 40 58 17 -1 -5 5 -13 14 -16 14 -6 14 -4 1 16 -17 25 -31 32
-42 21z"/>
<path d="M1115 2299 c-4 -6 -5 -12 -2 -15 2 -3 7 2 10 11 7 17 1 20 -8 4z"/>
<path d="M1137 2286 c-4 -10 1 -12 14 -9 23 6 24 9 5 16 -8 3 -17 0 -19 -7z"/>
<path d="M1204 2285 c-4 -8 -10 -12 -15 -9 -5 3 -6 -3 -2 -12 4 -11 8 -13 11
-6 2 7 8 10 13 7 5 -4 6 2 2 11 -5 13 -3 15 7 9 9 -5 11 -4 6 3 -10 16 -15 15
-22 -3z"/>
<path d="M1255 2290 c-6 -9 -4 -11 5 -5 10 6 12 4 6 -11 -4 -10 -4 -15 0 -11
4 4 12 -1 19 -10 9 -13 14 -13 20 -3 6 9 4 11 -5 5 -10 -6 -12 -4 -6 11 4 10
4 15 0 11 -4 -4 -12 1 -19 10 -9 13 -14 13 -20 3z"/>
<path d="M1322 2291 c-11 -6 -9 -9 6 -13 15 -4 19 -2 15 8 -6 16 -4 16 -21 5z"/>
<path d="M1075 2271 c-9 -15 15 -25 28 -12 9 9 7 10 -7 5 -13 -5 -17 -4 -12 4
4 7 5 12 2 12 -3 0 -7 -4 -11 -9z"/>
<path d="M1356 2263 c-6 -14 -5 -15 5 -6 7 7 10 15 7 18 -3 3 -9 -2 -12 -12z"/>
<path d="M986 2255 c-11 -8 -15 -15 -9 -15 6 0 16 7 23 15 16 19 11 19 -14 0z"/>
<path d="M910 2251 c0 -6 4 -13 10 -16 6 -3 7 1 4 9 -7 18 -14 21 -14 7z"/>
<path d="M1116 2252 c-3 -5 1 -9 9 -9 8 0 12 4 9 9 -3 4 -7 8 -9 8 -2 0 -6 -4
-9 -8z"/>
<path d="M1230 2250 c0 -5 5 -10 10 -10 6 0 10 5 10 10 0 6 -4 10 -10 10 -5 0
-10 -4 -10 -10z"/>
<path d="M1395 2250 c-3 -5 -1 -10 4 -10 6 0 11 5 11 10 0 6 -2 10 -4 10 -3 0
-8 -4 -11 -10z"/>
<path d="M1035 2241 c-6 -11 13 -26 22 -17 4 3 1 6 -6 6 -7 0 -9 5 -6 10 3 6
4 10 1 10 -3 0 -7 -4 -11 -9z"/>
<path d="M826 2225 c-4 -12 -3 -21 3 -23 6 -2 9 -8 6 -13 -4 -5 1 -6 10 -2 12
4 13 8 5 13 -6 4 -11 10 -10 14 4 18 -7 27 -14 11z"/>
<path d="M1201 2218 c9 -16 29 -17 29 -2 0 3 -5 2 -12 -2 -7 -5 -9 -2 -6 8 4
8 0 15 -7 15 -10 0 -11 -5 -4 -19z"/>
<path d="M1266 2226 c6 -15 4 -17 -6 -11 -9 6 -11 4 -5 -4 5 -9 10 -10 18 -2
8 8 7 14 -2 24 -10 10 -11 8 -5 -7z"/>
<path d="M1468 2233 c7 -3 16 -2 19 1 4 3 -2 6 -13 5 -11 0 -14 -3 -6 -6z"/>
<path d="M1082 2211 c-11 -6 -9 -9 6 -13 15 -4 19 -2 15 8 -6 16 -4 16 -21 5z"/>
<path d="M1360 2199 c13 -23 22 -25 13 -2 -5 12 -3 14 8 8 8 -5 11 -4 6 0 -4
5 -14 10 -22 11 -12 2 -12 -2 -5 -17z"/>
<path d="M1414 2209 c-5 -8 -3 -10 6 -4 9 6 12 4 8 -7 -4 -10 0 -14 15 -13 22
2 38 35 18 35 -6 0 -8 -8 -4 -17 6 -17 5 -17 -14 0 -16 14 -23 15 -29 6z"/>
<path d="M913 2185 c0 -8 4 -12 9 -9 4 3 8 9 8 15 0 5 -4 9 -8 9 -5 0 -9 -7
-9 -15z"/>
<path d="M1045 2190 c-3 -5 -1 -18 4 -27 6 -11 11 -13 11 -5 0 7 5 10 12 6 7
-4 8 -3 4 5 -4 6 -12 8 -18 5 -7 -5 -9 -1 -5 9 7 19 2 23 -8 7z"/>
<path d="M1117 2185 c-4 -8 -3 -16 1 -19 4 -3 9 4 9 15 2 23 -3 25 -10 4z"/>
<path d="M844 2168 c-4 -6 -3 -8 4 -4 5 3 13 0 15 -6 3 -8 6 -6 6 5 1 19 -14
23 -25 5z"/>
<path d="M1005 2167 c-14 -11 -15 -16 -5 -22 9 -6 11 -4 5 5 -6 9 -4 12 7 8 9
-4 15 0 15 8 0 17 1 17 -22 1z"/>
<path d="M1187 2169 c7 -7 15 -10 18 -7 3 3 -2 9 -12 12 -14 6 -15 5 -6 -5z"/>
<path d="M1240 2170 c8 -5 20 -10 25 -10 6 0 3 5 -5 10 -8 5 -19 10 -25 10 -5
0 -3 -5 5 -10z"/>
<path d="M1319 2163 c-12 -16 -12 -17 2 -6 9 7 19 10 22 6 4 -3 7 -1 7 5 0 17
-16 15 -31 -5z"/>
<path d="M1380 2170 c-8 -5 -10 -10 -5 -10 6 0 17 5 25 10 8 5 11 10 5 10 -5
0 -17 -5 -25 -10z"/>
<path d="M1469 2173 c-1 -5 -1 -12 0 -16 1 -4 -4 -18 -10 -30 l-12 -22 20 20
c13 12 17 24 12 31 -5 6 -6 14 -2 17 3 4 3 7 0 7 -4 0 -8 -3 -8 -7z"/>
<path d="M1275 2151 c-3 -5 0 -13 6 -17 7 -4 9 -3 5 4 -3 5 0 13 6 15 9 4 10
6 1 6 -6 1 -14 -3 -18 -8z"/>
<path d="M956 2135 c23 -17 34 -19 34 -4 0 5 -4 8 -9 4 -5 -3 -12 -1 -16 5 -3
5 -11 10 -18 10 -6 0 -2 -7 9 -15z"/>
<path d="M736 2131 c-4 -5 3 -7 14 -4 23 6 26 13 6 13 -8 0 -17 -4 -20 -9z"/>
<path d="M796 2125 c-11 -8 -15 -15 -9 -15 6 0 16 7 23 15 16 19 11 19 -14 0z"/>
<path d="M897 2126 c-4 -10 1 -12 14 -9 23 6 24 9 5 16 -8 3 -17 0 -19 -7z"/>
<path d="M1080 2125 c-7 -8 -11 -15 -9 -16 39 -8 40 -7 27 9 -11 14 -10 15 5
9 11 -4 16 -3 12 3 -9 14 -21 12 -35 -5z"/>
<path d="M1223 2125 c0 -8 4 -12 9 -9 5 3 6 10 3 15 -9 13 -12 11 -12 -6z"/>
<path d="M1335 2121 c-3 -5 0 -13 6 -17 7 -4 9 -3 5 4 -3 6 2 13 11 15 16 4
16 5 1 6 -9 0 -19 -3 -23 -8z"/>
<path d="M827 2100 c3 -11 9 -22 13 -25 5 -3 6 4 3 15 -3 11 -9 22 -13 25 -5
3 -6 -4 -3 -15z"/>
<path d="M946 2107 c7 -21 31 -29 31 -11 0 8 -3 12 -5 9 -3 -3 -11 0 -19 7
-11 8 -12 7 -7 -5z"/>
<path d="M876 2095 c4 -8 11 -15 16 -15 6 0 5 6 -2 15 -7 8 -14 15 -16 15 -2
0 -1 -7 2 -15z"/>
<path d="M1463 2103 c-7 -3 -13 -9 -13 -14 0 -5 6 -8 13 -6 7 1 11 -6 10 -18
-1 -11 0 -14 3 -7 3 6 11 9 17 5 7 -4 5 1 -3 12 -8 10 -13 20 -12 22 6 8 -2
10 -15 6z"/>
<path d="M1414 2088 c-5 -7 -3 -8 6 -3 9 6 12 4 8 -7 -4 -8 0 -15 7 -15 10 0
11 5 4 19 -11 21 -15 22 -25 6z"/>
<path d="M753 2065 c0 -8 4 -12 9 -9 4 3 8 9 8 15 0 5 -4 9 -8 9 -5 0 -9 -7
-9 -15z"/>
<path d="M1390 2071 c0 -6 4 -13 10 -16 6 -3 7 1 4 9 -7 18 -14 21 -14 7z"/>
<path d="M804 2055 c-10 -8 -14 -15 -9 -15 6 0 3 -5 -5 -11 -10 -7 -11 -9 -2
-7 8 2 13 7 12 12 -1 4 7 14 17 22 10 7 15 14 12 14 -3 0 -14 -7 -25 -15z"/>
<path d="M1438 2043 c7 -3 16 -2 19 1 4 3 -2 6 -13 5 -11 0 -14 -3 -6 -6z"/>
<path d="M1390 2032 c0 -4 9 -8 20 -9 11 -1 18 2 15 8 -7 11 -35 12 -35 1z"/>
<path d="M735 1990 c-3 -6 1 -7 9 -4 18 7 21 14 7 14 -6 0 -13 -4 -16 -10z"/>
<path d="M793 1957 c0 -8 6 -14 14 -14 9 0 10 4 2 14 -6 7 -12 13 -14 13 -1 0
-2 -6 -2 -13z"/>
<path d="M707 1946 c-4 -10 -1 -13 9 -9 7 3 14 9 14 14 0 14 -17 10 -23 -5z"/>
<path d="M1477 1928 c9 -10 17 -18 17 -18 1 0 2 8 2 18 0 10 -8 18 -18 18 -16
0 -16 -2 -1 -18z"/>
<path d="M770 1930 c0 -5 5 -10 11 -10 5 0 7 5 4 10 -3 6 -8 10 -11 10 -2 0
-4 -4 -4 -10z"/>
<path d="M710 1910 c-6 -11 -8 -20 -6 -20 3 0 10 9 16 20 6 11 8 20 6 20 -3 0
-10 -9 -16 -20z"/>
<path d="M736 1912 c-2 -4 -1 -14 3 -20 6 -10 11 -9 21 3 11 13 10 14 -5 9
-13 -5 -16 -4 -11 4 4 7 5 12 2 12 -3 0 -7 -4 -10 -8z"/>
<path d="M788 1903 c7 -3 16 -2 19 1 4 3 -2 6 -13 5 -11 0 -14 -3 -6 -6z"/>
<path d="M792 1885 c4 -4 3 -16 -2 -26 -7 -12 -6 -20 2 -25 7 -4 10 -4 6 1 -4
4 -3 16 2 26 7 12 6 20 -2 25 -7 4 -10 4 -6 -1z"/>
<path d="M753 1774 c0 -7 6 -10 12 -8 6 3 12 -2 12 -11 0 -11 -7 -14 -21 -10
-19 5 -19 5 -3 -5 23 -15 53 6 37 25 -5 6 -8 14 -5 16 2 3 -4 5 -14 5 -10 0
-18 -6 -18 -12z"/>
<path d="M693 1735 c-3 -9 -3 -18 -1 -21 3 -3 8 4 11 16 6 23 -1 27 -10 5z"/>
<path d="M747 1699 c4 -13 8 -18 11 -10 2 7 -1 18 -6 23 -8 8 -9 4 -5 -13z"/>
<path d="M731 1684 c0 -11 3 -14 6 -6 3 7 2 16 -1 19 -3 4 -6 -2 -5 -13z"/>
<path d="M790 1680 c0 -5 5 -10 11 -10 5 0 7 5 4 10 -3 6 -8 10 -11 10 -2 0
-4 -4 -4 -10z"/>
<path d="M713 1638 c-1 -10 3 -18 9 -18 6 0 8 3 5 7 -4 3 -2 11 3 18 7 8 6 12
-3 12 -7 0 -14 -9 -14 -19z"/>
<path d="M780 1656 c0 -2 7 -9 15 -16 9 -7 15 -8 15 -2 0 5 -7 12 -15 16 -8 3
-15 4 -15 2z"/>
<path d="M677 1643 c-8 -7 31 -63 44 -63 5 0 0 9 -11 20 -12 12 -18 25 -15 30
6 10 -9 22 -18 13z"/>
<path d="M763 1625 c-3 -9 -3 -18 -1 -21 3 -3 8 4 11 16 6 23 -1 27 -10 5z"/>
<path d="M741 1604 c0 -11 3 -14 6 -6 3 7 2 16 -1 19 -3 4 -6 -2 -5 -13z"/>
<path d="M777 1579 c7 -7 15 -10 18 -7 3 3 -2 9 -12 12 -14 6 -15 5 -6 -5z"/>
<path d="M861 1581 c-10 -7 -10 -10 -1 -16 6 -4 16 -3 22 3 13 13 -4 23 -21
13z"/>
<path d="M746 1567 c3 -10 9 -15 12 -12 3 3 0 11 -7 18 -10 9 -11 8 -5 -6z"/>
<path d="M823 1569 c9 -6 15 -14 12 -20 -4 -5 -1 -9 4 -9 6 0 11 4 11 8 0 12
-22 32 -34 32 -6 0 -3 -5 7 -11z"/>
<path d="M880 1541 c0 -6 4 -13 10 -16 6 -3 7 1 4 9 -7 18 -14 21 -14 7z"/>
<path d="M908 1527 c-3 -19 -2 -25 4 -19 6 6 8 18 6 28 -3 14 -5 12 -10 -9z"/>
<path d="M795 1524 c-20 -16 -19 -16 4 -9 18 5 22 4 16 -5 -5 -8 -4 -11 3 -6
6 4 9 13 5 21 -6 18 -3 18 -28 -1z"/>
<path d="M1272 1521 c-11 -6 -9 -9 6 -13 15 -4 19 -2 15 8 -6 16 -4 16 -21 5z"/>
<path d="M934 1512 c3 -5 1 -12 -6 -14 -8 -3 -9 -6 -1 -11 6 -4 13 0 17 8 3 8
0 17 -6 21 -6 4 -8 3 -4 -4z"/>
<path d="M1340 1510 c-9 -6 -10 -10 -3 -10 6 0 15 5 18 10 8 12 4 12 -15 0z"/>
<path d="M862 1496 c10 -7 14 -17 10 -21 -4 -5 -1 -5 6 -1 19 11 14 23 -10 29
-21 5 -21 5 -6 -7z"/>
<path d="M830 1485 c0 -8 4 -15 10 -15 5 0 7 7 4 15 -4 8 -8 15 -10 15 -2 0
-4 -7 -4 -15z"/>
<path d="M960 1485 c-7 -9 -11 -17 -9 -20 3 -2 10 5 17 15 14 24 10 26 -8 5z"/>
<path d="M1223 1489 c9 -6 15 -14 12 -20 -4 -5 -1 -9 4 -9 6 0 11 4 11 8 0 12
-22 32 -34 32 -6 0 -3 -5 7 -11z"/>
<path d="M1301 1490 c-9 -5 -4 -7 13 -7 29 0 32 2 13 10 -8 3 -20 2 -26 -3z"/>
<path d="M906 1466 c5 -13 4 -17 -4 -12 -7 4 -12 2 -12 -3 0 -14 17 -14 26 0
3 6 1 16 -5 22 -9 9 -10 7 -5 -7z"/>
<path d="M1037 1469 c7 -7 15 -10 18 -7 3 3 -2 9 -12 12 -14 6 -15 5 -6 -5z"/>
<path d="M1110 1470 c-13 -8 -12 -10 3 -10 9 0 17 5 17 10 0 12 -1 12 -20 0z"/>
<path d="M1176 1472 c-12 -20 23 -36 41 -19 4 5 3 8 -2 7 -21 -5 -36 0 -30 10
3 6 4 10 1 10 -3 0 -7 -4 -10 -8z"/>
<path d="M1322 1457 c10 -8 15 -17 11 -21 -4 -4 1 -4 10 0 20 7 20 7 -13 23
-22 11 -23 10 -8 -2z"/>
<path d="M1015 1450 c3 -5 8 -10 11 -10 2 0 4 5 4 10 0 6 -5 10 -11 10 -5 0
-7 -4 -4 -10z"/>
<path d="M947 1439 c7 -7 15 -10 18 -7 3 3 -2 9 -12 12 -14 6 -15 5 -6 -5z"/>
<path d="M1099 1438 c16 -21 37 -23 47 -6 5 8 2 9 -11 5 -9 -4 -25 -2 -34 5
-14 12 -14 11 -2 -4z"/>
<path d="M1377 1443 c-10 -9 -9 -23 1 -23 5 0 9 7 9 15 0 17 -1 18 -10 8z"/>
<path d="M1230 1420 c-8 -5 -12 -12 -9 -15 4 -3 12 1 19 10 14 17 11 19 -10 5z"/>
<path d="M1268 1423 c7 -3 16 -2 19 1 4 3 -2 6 -13 5 -11 0 -14 -3 -6 -6z"/>
<path d="M1317 1406 c-3 -8 0 -17 7 -19 10 -4 12 1 9 14 -6 23 -9 24 -16 5z"/>
<path d="M1373 1404 c3 -4 -4 -15 -16 -26 l-22 -19 27 17 c24 14 30 34 11 34
-4 0 -4 -3 0 -6z"/>
<path d="M1395 1380 c-4 -6 -4 -14 -1 -17 3 -4 6 0 6 8 0 12 2 12 10 -1 5 -8
12 -12 15 -9 3 4 -1 12 -9 18 -10 9 -16 9 -21 1z"/>
<path d="M1270 1351 c0 -6 5 -13 12 -17 6 -4 8 -3 4 4 -3 5 0 13 6 15 8 3 6 6
-4 6 -10 1 -18 -3 -18 -8z"/>
<path d="M1403 1335 c0 -8 4 -12 9 -9 5 3 6 10 3 15 -9 13 -12 11 -12 -6z"/>
<path d="M1337 1323 c-3 -5 8 -8 23 -8 15 0 26 3 23 8 -2 4 -13 7 -23 7 -10 0
-21 -3 -23 -7z"/>
<path d="M1310 1311 c0 -6 4 -13 10 -16 6 -3 7 1 4 9 -7 18 -14 21 -14 7z"/>
<path d="M1415 1309 c-4 -6 -5 -12 -2 -15 2 -3 7 2 10 11 7 17 1 20 -8 4z"/>
<path d="M1270 1260 c0 -5 7 -7 15 -4 8 4 15 8 15 10 0 2 -7 4 -15 4 -8 0 -15
-4 -15 -10z"/>
<path d="M1326 1261 c-17 -6 -17 -8 -4 -14 10 -3 19 0 22 9 3 8 4 14 3 13 -1
0 -11 -4 -21 -8z"/>
<path d="M1360 1245 c-7 -8 -9 -15 -5 -15 5 0 0 -9 -10 -20 -18 -20 -18 -21 0
-14 14 6 16 4 10 -6 -5 -8 -4 -11 2 -7 5 3 9 16 8 29 -1 13 2 29 8 36 14 17 2
15 -13 -3z"/>
<path d="M1405 1229 c-4 -6 -5 -12 -2 -15 2 -3 7 2 10 11 7 17 1 20 -8 4z"/>
<path d="M1315 1178 c4 -13 11 -27 16 -33 5 -5 4 5 -2 23 -12 36 -24 44 -14
10z"/>
<path d="M1396 1184 c-3 -9 -2 -22 2 -31 6 -10 9 -5 9 16 0 35 -2 38 -11 15z"/>
<path d="M1425 1169 c-4 -6 -4 -13 -1 -16 3 -4 6 -1 6 6 0 7 5 9 12 5 7 -4 8
-3 4 4 -9 15 -13 15 -21 1z"/>
<path d="M1360 1145 c-10 -12 -10 -18 -2 -26 7 -5 10 -6 7 -3 -2 4 0 15 6 25
12 23 6 25 -11 4z"/>
<path d="M1430 1135 c-7 -9 -11 -17 -9 -20 3 -2 10 5 17 15 14 24 10 26 -8 5z"/>
<path d="M1396 1104 c-4 -9 -9 -14 -13 -11 -8 9 -33 -12 -33 -27 0 -6 5 -3 11
7 6 9 14 15 18 12 10 -6 36 23 29 31 -3 3 -8 -3 -12 -12z"/>
<path d="M1416 1068 c5 -7 2 -9 -8 -6 -8 4 -15 0 -15 -7 0 -10 5 -11 19 -4 16
9 17 29 2 29 -3 0 -2 -5 2 -12z"/>
<path d="M1330 1061 c0 -6 4 -13 10 -16 6 -3 7 1 4 9 -7 18 -14 21 -14 7z"/>
<path d="M1341 1014 c0 -11 3 -14 6 -6 3 7 2 16 -1 19 -3 4 -6 -2 -5 -13z"/>
<path d="M1462 1004 c-11 -12 -10 -15 2 -20 9 -3 14 -9 11 -13 -2 -4 2 -8 10
-8 13 0 13 3 1 16 -7 9 -11 22 -9 29 6 16 1 15 -15 -4z"/>
<path d="M1403 985 c-3 -9 -3 -18 -1 -21 3 -3 8 4 11 16 6 23 -1 27 -10 5z"/>
<path d="M1317 963 c-10 -9 -9 -23 1 -23 5 0 9 7 9 15 0 17 -1 18 -10 8z"/>
<path d="M1352 944 c-7 -8 -8 -14 -3 -14 10 0 25 19 20 25 -2 1 -10 -3 -17
-11z"/>
<path d="M1430 956 c0 -2 9 -6 20 -9 11 -3 18 -1 14 4 -5 9 -34 13 -34 5z"/>
<path d="M1482 946 c4 -5 3 -15 -3 -22 -6 -7 -6 -14 -1 -18 6 -3 15 0 21 8 9
10 7 17 -6 27 -10 7 -15 9 -11 5z"/>
<path d="M1315 920 c-3 -5 -1 -10 4 -10 6 0 11 5 11 10 0 6 -2 10 -4 10 -3 0
-8 -4 -11 -10z"/>
<path d="M1308 873 c6 -2 18 -2 25 0 6 3 1 5 -13 5 -14 0 -19 -2 -12 -5z"/>
<path d="M1231 844 c0 -11 3 -14 6 -6 3 7 2 16 -1 19 -3 4 -6 -2 -5 -13z"/>
<path d="M1297 843 c3 -7 6 -13 8 -13 2 0 5 6 8 13 3 8 -1 14 -8 14 -7 0 -11
-6 -8 -14z"/>
<path d="M1326 844 c-5 -14 -4 -15 9 -4 17 14 19 20 6 20 -5 0 -12 -7 -15 -16z"/>
<path d="M870 1036 c0 -4 7 -14 15 -22 8 -9 15 -11 15 -6 0 5 -7 15 -15 22 -8
7 -15 9 -15 6z"/>
<path d="M917 1033 c-9 -8 12 -33 27 -33 6 0 3 5 -7 11 -9 6 -15 14 -12 20 7
10 2 12 -8 2z"/>
<path d="M860 975 c0 -8 4 -15 10 -15 5 0 7 7 4 15 -4 8 -8 15 -10 15 -2 0 -4
-7 -4 -15z"/>
<path d="M891 974 c0 -11 3 -14 6 -6 3 7 2 16 -1 19 -3 4 -6 -2 -5 -13z"/>
<path d="M955 970 c-3 -6 1 -7 9 -4 18 7 21 14 7 14 -6 0 -13 -4 -16 -10z"/>
<path d="M930 961 c0 -6 4 -13 10 -16 6 -3 7 1 4 9 -7 18 -14 21 -14 7z"/>
<path d="M875 931 c1 -8 7 -16 14 -17 7 -2 7 0 1 3 -7 3 -8 9 -1 17 8 9 7 13
-3 13 -8 0 -13 -7 -11 -16z"/>
<path d="M910 927 c0 -10 9 -14 30 -13 27 1 38 13 23 26 -4 3 -2 -1 2 -9 6
-11 4 -13 -8 -8 -10 4 -24 10 -32 13 -9 4 -15 1 -15 -9z"/>
<path d="M534 998 c-4 -5 -12 -7 -19 -4 -13 5 -30 -22 -20 -32 3 -3 5 0 5 7 0
9 9 12 24 9 19 -4 23 -1 18 11 -5 13 -3 14 9 4 13 -10 16 -10 16 0 0 15 -25
18 -33 5z"/>
<path d="M581 997 c2 -1 12 -9 22 -16 15 -12 17 -12 11 3 -3 9 -13 16 -22 16
-8 0 -13 -1 -11 -3z"/>
<path d="M1712 2813 c0 -21 -1 -40 -2 -43 -1 -3 -3 -12 -5 -20 -2 -8 -7 -24
-11 -35 -7 -18 -6 -19 11 -5 17 14 18 14 8 -5 -6 -11 -9 -28 -8 -38 2 -9 -1
-15 -6 -11 -5 3 -9 0 -9 -5 0 -6 8 -11 18 -12 13 0 12 -2 -5 -9 -13 -5 -23
-12 -23 -15 0 -4 4 -4 9 -1 10 6 21 -16 21 -42 0 -15 -2 -15 -10 -2 -8 13 -11
13 -22 1 -11 -11 -11 -13 1 -6 10 6 13 4 8 -7 -3 -9 0 -15 6 -14 7 0 13 -2 15
-6 1 -5 -2 -8 -8 -8 -14 0 -13 -7 6 -35 14 -21 14 -24 -3 -34 -17 -10 -17 -10
1 -11 20 0 20 0 0 -16 -10 -8 -13 -13 -6 -9 8 4 12 -2 12 -18 0 -14 7 -28 16
-31 14 -5 15 -4 5 8 -9 11 -9 16 0 22 8 5 9 3 4 -6 -6 -10 -4 -12 9 -7 13 5
15 3 7 -12 -6 -10 -7 -22 -3 -26 4 -5 1 -5 -5 -1 -7 4 -13 2 -13 -3 0 -6 5
-11 10 -11 7 0 7 -6 2 -17 -5 -10 -8 -28 -6 -40 2 -12 -3 -28 -11 -36 -12 -12
-12 -16 -1 -20 12 -5 13 -20 3 -72 -2 -11 -1 -30 4 -41 5 -15 2 -27 -9 -39 -9
-10 -11 -15 -4 -11 8 5 12 0 12 -12 0 -27 -11 -34 -28 -19 -13 10 -14 9 -7 -3
14 -22 15 -43 4 -56 -7 -8 -6 -15 2 -20 7 -4 9 -3 5 4 -3 6 -2 13 3 16 5 4 9
-7 9 -24 -1 -16 -5 -30 -10 -30 -4 0 -8 -5 -8 -11 0 -5 6 -7 13 -3 8 5 8 2 -2
-9 -8 -10 -9 -17 -3 -17 9 0 9 -16 3 -72 -1 -5 -6 -8 -12 -8 -6 0 -7 5 -2 13
11 18 13 38 2 31 -5 -3 -7 -9 -4 -14 3 -5 -2 -13 -11 -18 -13 -7 -13 -10 -2
-14 9 -4 13 -25 13 -74 0 -38 4 -72 9 -76 6 -4 4 -13 -5 -24 -11 -14 -11 -18
-1 -22 10 -3 10 -7 0 -20 -9 -10 -9 -13 -1 -9 8 5 13 -4 15 -30 l3 -38 29 58
c16 31 33 57 38 57 5 0 6 -5 2 -12 -4 -7 -3 -8 4 -4 6 4 9 13 5 21 -4 11 0 14
13 9 18 -5 18 -5 2 6 -15 9 -16 14 -6 30 7 10 15 17 19 14 4 -2 11 1 15 7 4 7
3 9 -4 5 -6 -3 -13 -2 -17 4 -3 5 -1 10 5 10 7 0 10 6 7 14 -3 8 3 22 14 32
10 9 17 19 15 22 -3 2 2 11 10 19 8 8 12 18 9 23 -3 5 -1 11 5 15 5 3 10 0 10
-7 0 -8 5 -6 11 5 6 9 15 14 21 11 7 -4 8 -2 4 5 -6 9 -11 9 -21 1 -8 -7 -16
-7 -19 -2 -3 6 1 13 10 16 8 3 13 10 10 15 -11 17 5 40 22 34 12 -4 12 -1 -3
10 -11 8 -18 17 -15 19 35 27 58 36 69 25 9 -9 11 -8 6 4 -4 10 -1 20 6 25 7
4 10 3 5 -4 -7 -12 20 -10 31 3 4 4 2 5 -4 1 -7 -4 -13 -3 -13 3 0 5 6 13 13
18 12 8 17 9 38 12 5 0 7 5 4 11 -3 6 1 7 10 3 13 -4 14 -7 3 -14 -9 -6 -6 -8
10 -6 12 1 21 6 18 12 -2 6 7 11 19 11 19 0 22 -3 14 -17 -13 -24 -11 -38 2
-16 9 15 13 16 27 5 9 -7 13 -8 9 -2 -4 8 3 11 22 10 16 0 27 -4 25 -8 -3 -5
0 -8 6 -8 6 0 8 -4 5 -10 -3 -5 -1 -10 4 -10 6 0 11 5 11 10 0 6 5 10 11 10 5
0 8 -4 4 -9 -3 -6 7 -6 27 -1 17 6 34 7 37 5 2 -3 -1 -5 -7 -5 -7 0 -12 -5
-12 -11 0 -6 9 -8 22 -3 20 6 21 5 9 -10 -8 -9 -11 -19 -7 -23 3 -3 6 -1 6 5
0 7 8 12 18 11 10 0 12 -3 5 -6 -7 -2 -13 -10 -13 -16 0 -5 3 -7 7 -4 8 8 43
-22 43 -36 0 -6 -6 -3 -13 7 -12 16 -14 16 -14 3 0 -17 23 -31 37 -22 5 3 7
-3 5 -13 -2 -10 0 -25 5 -32 5 -7 4 -25 -1 -39 -8 -24 -8 -25 5 -7 14 18 15
18 13 -3 -1 -11 -7 -21 -14 -21 -7 0 -13 -5 -13 -11 0 -6 7 -9 15 -5 13 4 14
2 5 -14 -6 -11 -8 -26 -4 -33 6 -9 3 -8 -8 1 -13 10 -18 10 -24 1 -4 -7 -3 -9
3 -6 6 4 13 -2 16 -14 5 -17 3 -18 -9 -8 -12 10 -13 9 -8 -5 5 -12 2 -15 -9
-10 -11 4 -14 1 -11 -13 3 -11 -3 -26 -15 -37 -12 -11 -21 -16 -21 -11 0 4 -7
2 -15 -5 -10 -9 -15 -9 -15 -1 0 6 5 12 10 12 6 1 14 2 19 3 24 3 21 16 -2 14
-16 -1 -29 -10 -33 -21 -6 -18 -6 -18 -20 0 -12 17 -13 17 -9 -4 4 -22 -8 -25
-34 -9 -11 7 -13 5 -8 -7 3 -9 0 -18 -9 -21 -9 -3 -12 -1 -9 4 9 14 -5 12 -38
-5 -24 -12 -29 -12 -33 0 -4 8 -10 13 -15 10 -12 -8 -29 29 -19 44 4 8 13 10
20 6 8 -5 11 -4 6 3 -3 5 -3 12 1 15 5 2 2 2 -4 1 -7 -2 -13 1 -13 6 0 6 5 10
12 10 9 0 9 3 1 11 -12 12 -73 21 -73 10 0 -3 -12 -11 -26 -18 -22 -10 -24
-10 -13 3 6 8 9 17 5 21 -3 3 -6 1 -6 -6 0 -7 -7 -11 -14 -8 -10 4 -13 1 -10
-7 3 -9 -7 -20 -26 -30 -30 -15 -31 -14 -19 2 13 15 12 16 -4 3 -10 -8 -15
-21 -12 -29 3 -9 0 -12 -9 -9 -10 4 -13 1 -10 -8 4 -10 0 -13 -17 -10 -17 3
-20 2 -11 -7 13 -13 -3 -52 -18 -43 -5 3 -7 -4 -5 -15 2 -11 0 -20 -6 -20 -5
0 -9 -6 -9 -13 0 -8 -10 -19 -22 -26 -13 -6 -15 -9 -6 -7 12 3 15 1 11 -9 -3
-8 -9 -13 -13 -10 -4 3 -11 -2 -14 -11 -3 -8 -2 -12 4 -9 6 3 7 -1 4 -9 -3 -9
-10 -14 -14 -11 -4 3 -10 -2 -14 -10 -3 -8 0 -17 6 -21 7 -4 5 -10 -5 -16 -10
-5 -14 -15 -10 -26 6 -15 5 -16 -13 -2 -17 14 -18 13 -7 -1 7 -9 9 -20 5 -24
-4 -5 -2 -5 4 -2 7 4 15 0 18 -9 4 -10 2 -13 -6 -8 -8 5 -9 2 -5 -9 4 -12 1
-17 -11 -17 -10 0 -13 -3 -6 -8 6 -4 10 -36 10 -74 -1 -56 -3 -65 -15 -55 -12
10 -13 9 -6 -3 5 -8 9 -28 10 -45 2 -25 -2 -31 -19 -33 -16 -1 -17 1 -7 8 17
10 23 38 11 45 -5 3 -7 -3 -5 -14 2 -11 -2 -22 -9 -24 -8 -3 -12 -21 -10 -51
2 -26 -1 -46 -7 -46 -6 0 -7 -5 -4 -10 3 -6 2 -10 -2 -10 -5 0 -9 -9 -10 -21
-2 -18 0 -19 15 -7 15 12 15 10 -1 -14 -21 -34 -22 -45 -2 -28 20 16 19 6 -1
-14 -9 -9 -11 -16 -4 -16 6 0 9 -4 5 -9 -3 -5 0 -13 6 -17 7 -4 7 -9 1 -13
-11 -7 -4 -71 9 -71 5 0 9 7 9 15 0 8 5 15 10 15 6 0 15 11 22 24 6 14 17 28
26 31 13 5 13 3 1 -12 -12 -16 -12 -17 2 -6 9 7 19 9 24 5 4 -4 3 2 -3 14 -10
19 -8 20 19 19 16 -1 42 -10 57 -22 l27 -20 -30 -16 c-17 -9 -24 -16 -17 -17
6 0 12 -9 12 -21 0 -12 -4 -17 -11 -13 -8 5 -8 1 0 -14 6 -11 8 -28 5 -37 -6
-16 -5 -16 22 -2 22 11 35 12 48 5 13 -7 17 -7 12 0 -9 16 13 26 28 13 11 -9
14 -9 12 1 0 7 4 14 9 16 6 2 20 9 32 17 20 13 23 13 31 -1 8 -15 10 -15 15 0
4 10 3 15 -3 11 -16 -10 -11 1 7 16 11 10 14 10 9 1 -4 -7 -2 -12 4 -12 6 0 8
-5 4 -12 -4 -7 -3 -8 4 -4 6 4 8 14 5 23 -5 13 -2 15 11 10 11 -4 15 -3 11 4
-4 6 0 9 10 7 10 -2 20 3 22 10 3 6 0 12 -7 12 -6 0 -8 -5 -4 -12 4 -7 3 -8
-4 -4 -17 10 -15 16 11 25 13 5 30 5 41 -1 14 -8 17 -7 11 3 -6 9 -3 11 8 6 9
-3 19 -1 23 5 4 6 3 8 -4 4 -6 -3 -13 -2 -16 3 -7 11 13 9 33 -3 11 -7 13 -5
8 7 -4 12 0 14 19 11 16 -3 23 -1 19 6 -3 6 0 7 9 4 9 -3 16 -10 16 -15 0 -5
4 -9 10 -9 5 0 7 8 4 18 -5 14 -3 14 10 -2 13 -16 16 -16 16 -5 0 9 7 16 15
16 11 0 12 -4 4 -13 -7 -8 -6 -14 2 -20 8 -5 9 -3 4 6 -6 10 -4 12 9 7 11 -4
15 -3 10 4 -4 8 1 9 16 4 13 -4 20 -3 17 2 -3 5 4 9 16 10 68 1 78 3 71 15 -5
8 0 9 14 6 20 -6 26 0 20 19 -2 5 -10 7 -18 6 -10 -2 -10 0 -2 3 6 3 12 10 12
15 0 6 -5 7 -12 3 -7 -5 -8 -3 -3 6 5 9 14 5 31 -15 25 -29 31 -27 15 4 -7 13
-6 18 4 18 8 0 12 -4 9 -8 -2 -4 0 -10 6 -14 5 -3 10 -2 10 4 0 11 62 10 70 0
3 -4 16 -9 30 -10 14 -2 31 -11 38 -19 8 -8 11 -10 9 -5 -3 6 13 9 41 9 71 -2
72 -3 66 -21 -5 -15 -4 -15 5 -3 10 14 95 24 86 10 -3 -4 -16 -6 -30 -5 -14 2
-23 0 -20 -5 2 -4 17 -6 32 -4 15 1 31 -3 36 -9 5 -7 6 -1 2 13 -3 14 -3 20 2
14 4 -6 22 -11 38 -12 17 -1 49 -4 71 -7 31 -4 43 -2 47 9 4 10 1 13 -8 10 -8
-3 -16 3 -20 15 -3 12 -10 19 -15 16 -4 -3 -11 2 -14 11 -3 8 -11 12 -17 8 -8
-4 -9 -3 -5 4 4 7 1 12 -8 12 -10 0 -13 6 -9 18 6 15 5 15 -10 3 -14 -11 -18
-11 -23 3 -3 9 -15 16 -25 16 -10 0 -19 5 -19 11 0 5 -5 7 -12 3 -8 -5 -9 -2
-4 11 5 15 4 16 -8 6 -11 -9 -16 -9 -22 0 -5 8 -3 9 6 4 9 -5 11 -4 6 4 -6 9
-11 9 -21 1 -8 -7 -15 -7 -19 -1 -4 5 -2 12 4 16 5 3 10 12 10 18 0 9 -2 9 -8
0 -9 -15 -44 -11 -50 5 -2 7 -8 10 -13 6 -5 -3 -9 0 -9 5 0 6 -6 10 -12 9 -7
-2 -12 3 -10 10 3 16 -15 16 -21 0 -4 -10 -6 -10 -6 0 -1 6 -6 12 -12 12 -5 0
-7 -5 -3 -12 5 -7 3 -8 -7 -2 -8 4 -23 10 -34 11 -11 2 -21 8 -23 13 -6 18
-21 10 -16 -8 4 -10 3 -13 -3 -6 -4 6 -18 10 -30 9 -13 -1 -23 2 -23 7 0 4 -5
8 -11 8 -5 0 -7 -4 -4 -10 3 -6 -1 -7 -9 -4 -9 3 -13 11 -10 16 4 6 -5 2 -20
-7 -15 -10 -26 -13 -26 -6 0 6 5 11 12 11 6 0 9 3 6 6 -4 3 -17 0 -30 -7 -24
-14 -81 -24 -62 -11 13 8 15 44 2 36 -5 -3 -6 -8 -4 -12 2 -4 -1 -11 -8 -17
-13 -12 -107 -14 -100 -3 3 5 10 6 15 3 5 -3 6 1 2 10 -3 9 -9 12 -12 7 -3 -5
-16 -14 -28 -21 -18 -9 -24 -8 -33 6 -11 16 -11 16 -6 1 3 -10 1 -20 -4 -23
-6 -4 -10 1 -10 9 0 8 -8 14 -19 13 -11 -1 -17 -6 -14 -14 4 -10 0 -11 -20 -4
-21 8 -25 7 -20 -4 3 -8 1 -15 -5 -15 -6 0 -13 6 -15 13 -3 6 -6 2 -6 -10 -1
-13 -7 -23 -15 -23 -12 0 -26 -20 -26 -36 0 -2 11 -2 25 0 17 3 25 0 25 -9 0
-8 10 -21 22 -29 12 -9 17 -16 10 -16 -7 0 -10 -5 -7 -10 3 -6 -2 -13 -12 -17
-10 -4 -21 -11 -24 -16 -3 -5 -9 -1 -12 8 -5 10 -3 14 5 9 6 -4 8 -3 5 4 -5 6
1 8 15 4 15 -4 19 -2 14 7 -5 7 -11 10 -14 7 -3 -3 -12 0 -20 7 -11 8 -14 8
-9 0 4 -6 3 -14 -3 -18 -6 -4 -8 -10 -5 -15 3 -5 0 -12 -6 -16 -8 -4 -9 -3 -5
4 10 16 -7 15 -23 -1 -11 -9 -12 -9 -7 0 4 7 2 21 -4 30 -10 17 -10 17 -8 -1
2 -10 -4 -21 -12 -23 -13 -4 -13 -3 0 6 14 10 13 12 -10 15 -5 0 -9 3 -8 6 4
13 -24 50 -35 45 -7 -4 0 4 16 17 15 13 27 28 27 33 0 6 -5 3 -11 -5 -8 -11
-9 -8 -4 13 3 16 2 26 -3 23 -5 -3 -9 1 -9 8 0 9 7 12 16 8 13 -4 14 -3 5 9
-9 12 -10 20 -5 47 1 4 6 0 11 -8 6 -9 10 -10 10 -3 0 6 -4 14 -9 18 -6 3 -7
15 -5 28 3 12 6 28 6 35 1 8 9 12 17 9 12 -3 17 4 17 24 1 19 -2 26 -10 22 -6
-3 -2 3 8 15 11 12 24 22 30 22 6 0 3 -7 -7 -14 -15 -12 -15 -14 -2 -19 8 -4
14 -1 12 6 -1 7 4 11 11 9 8 -1 11 1 8 6 -2 4 -1 14 5 22 7 13 9 12 9 -2 0
-10 4 -18 10 -18 5 0 9 3 9 8 -5 29 2 34 23 16 l21 -19 -17 26 -17 27 31 -3
c17 -1 30 2 30 9 0 6 4 5 9 -3 5 -7 14 -10 21 -6 9 6 9 3 0 -15 -6 -12 -9 -24
-6 -28 3 -3 6 0 6 6 0 7 7 12 15 12 9 0 12 6 9 18 -5 14 -4 14 4 3 8 -11 6
-25 -4 -49 -14 -34 -14 -34 10 -28 15 4 26 1 29 -7 3 -7 6 -5 6 6 1 10 9 17
20 17 10 0 24 7 31 15 10 12 16 13 27 4 11 -10 12 -8 7 6 -5 13 -4 16 4 11 7
-4 10 -2 7 7 -3 7 10 27 28 44 27 24 37 29 46 20 9 -9 11 -8 6 6 -4 9 -3 17 3
17 6 0 12 -5 14 -12 3 -7 7 -5 11 6 4 10 3 15 -3 11 -6 -3 -10 -1 -10 4 0 6 7
11 16 11 8 0 12 5 9 10 -3 6 1 10 9 10 9 0 15 3 15 8 -4 22 2 42 11 37 5 -3 7
-13 4 -23 -5 -15 -4 -15 6 1 6 9 16 14 22 11 7 -4 8 -2 4 5 -4 6 -11 9 -16 6
-5 -3 -8 3 -7 14 1 16 4 18 15 9 7 -6 12 -7 11 -2 -5 27 3 64 17 78 8 9 13 16
9 16 -4 0 0 7 9 15 10 11 13 23 8 38 -5 12 -7 33 -6 47 1 14 -2 33 -7 42 -8
14 -6 16 8 11 16 -6 16 -5 5 10 -8 9 -10 22 -6 28 5 8 3 9 -6 4 -10 -6 -12 -2
-8 17 3 18 0 25 -10 24 -16 -1 -21 45 -9 77 3 9 3 17 -1 17 -5 0 -7 16 -6 35
2 23 -1 33 -7 29 -7 -4 -9 5 -7 22 2 17 -4 36 -12 44 -9 9 -15 29 -14 45 0 17
-4 34 -10 38 -7 6 -5 7 4 4 10 -3 16 2 16 14 0 14 -3 16 -15 6 -11 -9 -13 -9
-8 0 4 6 3 14 -3 18 -6 4 -8 10 -6 14 7 10 -49 93 -57 84 -4 -3 -7 1 -7 11 0
9 -6 16 -12 15 -26 -3 -39 1 -33 11 3 6 -3 10 -14 10 -11 0 -23 -4 -26 -10 -3
-5 -12 -10 -18 -10 -7 0 -4 5 6 11 9 5 17 15 17 22 0 8 -4 6 -11 -3 -8 -11
-12 -12 -16 -2 -2 6 -9 12 -14 12 -6 0 -7 -4 -4 -10 3 -6 -1 -7 -9 -4 -19 7
-21 20 -3 28 6 3 -3 3 -21 0 -30 -4 -32 -3 -23 14 7 14 6 19 -4 19 -8 0 -12
-4 -10 -8 3 -4 -4 -5 -14 -2 -22 6 -35 29 -24 45 3 7 1 8 -5 4 -7 -4 -12 -15
-12 -24 -1 -15 -2 -15 -13 -1 -16 20 -72 19 -72 -1 0 -22 -38 -18 -50 5 -5 11
-19 20 -29 20 -11 0 -21 7 -23 15 -4 13 -3 13 7 0 8 -10 10 -11 8 -2 -2 8 -6
12 -10 10 -3 -2 -18 8 -32 21 -15 14 -32 26 -39 27 -20 3 -67 31 -62 36 3 2
-2 5 -10 5 -9 0 -14 -6 -11 -13 3 -8 0 -11 -10 -7 -9 3 -13 13 -9 27 4 14 3
17 -3 8 -12 -18 -59 3 -68 30 -3 11 -8 17 -12 14 -10 -11 -51 36 -45 52 5 11
3 13 -8 7 -11 -7 -11 -5 1 10 14 17 13 18 -2 12 -12 -4 -15 -2 -12 7 3 7 -2
16 -11 20 -9 3 -14 10 -10 16 3 5 -2 21 -11 35 -9 14 -13 25 -9 25 3 0 0 7 -9
15 -21 22 -23 19 -24 -22z m113 -262 c-9 -8 -36 -10 -30 -2 2 4 11 8 20 8 8 0
13 -3 10 -6z m85 -65 c0 -5 -8 -2 -17 5 -10 7 -15 10 -11 5 4 -5 3 -16 -2 -26
-6 -12 -5 -23 6 -36 15 -18 15 -18 5 2 -11 24 -4 38 24 42 19 2 19 2 3 -11
-22 -17 -23 -24 -3 -24 8 0 12 4 9 9 -3 4 -1 8 5 8 5 0 17 3 27 7 15 6 14 3
-4 -17 -12 -13 -20 -26 -17 -28 2 -3 14 7 26 20 l22 25 30 -31 29 -31 -17 30
c-18 30 -18 30 2 12 11 -9 23 -14 28 -10 4 5 5 3 2 -3 -7 -13 40 -39 63 -35 8
2 4 -6 -10 -18 -14 -11 -20 -20 -13 -21 6 0 13 6 16 13 2 6 8 8 13 4 5 -5 1
-15 -10 -22 -18 -13 -18 -14 2 -12 11 0 18 5 16 9 -3 4 0 8 6 8 6 0 8 5 4 12
-4 7 -3 8 5 4 6 -4 9 -12 6 -17 -9 -13 9 -11 24 4 11 10 11 8 2 -11 -7 -12
-17 -20 -23 -16 -7 4 -8 3 -4 -4 4 -7 2 -12 -5 -12 -7 0 -9 -3 -6 -7 4 -3 18
4 32 17 19 17 28 21 36 13 6 -6 19 -9 28 -6 13 4 13 3 2 -5 -15 -11 -7 -32 12
-32 7 0 6 4 -3 10 -13 9 -13 10 1 10 19 0 45 -20 52 -40 4 -10 6 -8 6 6 1 12
-6 24 -14 28 -8 3 -15 11 -14 18 0 10 2 10 6 -1 5 -11 7 -11 14 0 6 10 9 11 9
2 0 -19 18 -15 22 5 3 14 5 13 10 -6 4 -14 2 -20 -4 -15 -7 4 -8 1 -3 -7 6
-10 11 -9 23 6 14 18 14 18 8 0 -5 -15 -2 -17 13 -13 15 3 18 1 14 -11 -4 -10
-2 -13 5 -8 7 4 12 1 12 -9 0 -9 -4 -13 -10 -10 -5 3 -10 2 -10 -4 0 -5 5 -13
10 -16 6 -3 10 -2 10 2 0 5 9 9 20 10 11 1 20 -4 20 -12 0 -8 -6 -12 -14 -9
-8 3 -17 0 -22 -7 -5 -9 -2 -10 10 -6 12 5 19 -1 26 -19 6 -14 14 -23 19 -20
5 3 11 -1 15 -9 3 -8 10 -15 16 -15 5 0 2 9 -7 19 -9 11 -21 17 -26 14 -6 -4
-8 3 -5 15 4 14 2 20 -4 15 -7 -3 -8 -1 -4 6 4 6 12 9 17 5 5 -3 7 -10 3 -15
-3 -6 6 -8 22 -5 21 4 24 2 16 -6 -19 -19 -14 -30 7 -18 23 12 34 0 24 -26 -4
-11 -3 -15 5 -10 20 12 22 -13 2 -27 -18 -13 -19 -15 -5 -21 9 -3 13 -2 10 4
-3 6 -1 10 4 10 15 0 14 -13 -1 -29 -11 -11 -10 -13 3 -8 13 4 16 1 11 -15 -4
-16 -2 -19 8 -13 8 5 11 4 6 -3 -8 -14 -33 -5 -40 14 -3 9 -10 12 -16 9 -5 -3
-10 3 -10 14 0 11 -3 22 -7 24 -5 3 -8 -7 -8 -23 0 -18 5 -27 14 -25 17 2 50
-27 43 -38 -2 -5 6 -3 19 3 24 13 24 13 6 -8 -18 -20 -15 -48 3 -37 5 3 12 0
16 -7 4 -7 4 -10 -1 -6 -5 5 -15 -2 -23 -13 -13 -19 -12 -23 4 -37 17 -16 17
-16 5 0 -13 18 -6 42 10 32 5 -3 7 -10 3 -15 -3 -5 0 -17 8 -26 7 -9 8 -14 3
-11 -6 4 -17 3 -25 -3 -13 -7 -13 -9 -1 -9 11 0 10 -4 -4 -13 -12 -10 -15 -18
-9 -28 5 -8 9 -17 9 -21 0 -3 3 -9 7 -13 3 -4 5 0 4 9 -1 8 -5 19 -9 22 -11
11 -8 21 6 21 14 0 16 -44 3 -65 -4 -7 -5 -16 -2 -19 3 -4 6 -2 6 4 0 6 7 14
16 17 14 5 15 4 4 -9 -7 -8 -13 -25 -14 -38 -1 -12 -7 -21 -13 -20 -6 1 -14
-4 -17 -12 -3 -10 0 -12 11 -8 11 4 14 2 9 -5 -5 -8 -1 -10 10 -5 12 4 15 3
10 -5 -4 -7 -2 -10 6 -7 9 4 14 -2 14 -15 0 -21 -15 -29 -17 -7 0 9 -2 9 -6
-1 -2 -6 -10 -9 -15 -6 -7 4 -8 2 -4 -5 4 -6 12 -9 17 -6 5 4 9 1 9 -5 0 -6 5
-8 12 -4 6 4 8 3 5 -4 -4 -5 -16 -8 -27 -5 -12 3 -20 0 -20 -6 0 -7 4 -10 9
-7 5 3 11 0 14 -8 7 -18 -22 -14 -34 5 -5 8 -9 9 -9 3 0 -5 10 -21 22 -34 17
-18 18 -22 5 -17 -10 4 -17 2 -17 -5 0 -6 -7 -19 -16 -29 -8 -9 -17 -26 -19
-36 -2 -10 -4 -19 -4 -21 -1 -2 -6 0 -11 3 -8 5 -8 11 0 20 8 9 8 15 0 20 -6
4 -10 3 -9 -2 4 -22 -2 -25 -16 -7 -14 16 -13 14 0 -15 9 -18 12 -30 6 -27 -6
4 -11 3 -11 -2 0 -5 -7 -9 -15 -9 -8 0 -15 4 -15 9 0 4 -6 8 -12 8 -7 -1 -2
-10 12 -22 16 -14 19 -19 8 -15 -10 4 -18 2 -18 -3 0 -6 -7 -10 -15 -10 -13 0
-20 -19 -16 -43 1 -5 -3 -6 -8 -2 -6 3 -8 13 -5 23 5 14 2 13 -12 -3 -10 -12
-15 -14 -12 -5 3 8 -1 29 -8 45 -8 18 -13 23 -14 13 0 -10 -4 -18 -10 -18 -5
0 -10 -5 -10 -11 0 -8 4 -8 14 0 10 9 15 8 19 -4 5 -10 1 -14 -13 -12 -11 2
-22 6 -26 9 -3 4 -12 4 -20 1 -8 -3 -14 0 -14 6 0 6 5 10 11 8 6 -1 14 4 16
11 5 14 -13 17 -22 3 -3 -6 -19 -2 -38 9 -24 14 -36 16 -47 9 -13 -9 -12 -10
2 -5 10 3 25 -3 34 -12 10 -9 19 -16 21 -14 2 1 3 -1 3 -5 0 -4 -6 -8 -15 -9
-8 -1 -13 1 -10 6 6 10 -16 19 -33 13 -6 -3 -9 -9 -6 -15 4 -6 -2 -8 -16 -3
-15 5 -20 3 -16 -3 3 -6 1 -14 -5 -18 -8 -4 -9 -3 -5 4 4 7 2 13 -3 13 -6 1
-17 2 -23 3 -7 1 -12 9 -10 19 2 9 -1 17 -7 17 -5 0 -8 -6 -7 -12 3 -20 17
-39 25 -34 4 3 8 -1 8 -8 0 -8 -7 -12 -15 -8 -11 4 -13 1 -7 -8 5 -9 4 -11 -3
-6 -7 4 -12 2 -12 -4 0 -6 -4 -8 -10 -5 -5 3 -18 -8 -28 -25 l-19 -30 -1 31
c-1 35 -12 54 -12 20 0 -12 -4 -20 -8 -17 -4 2 -14 0 -22 -5 -12 -8 -11 -9 4
-7 10 2 21 -3 23 -10 3 -8 -1 -10 -13 -5 -16 6 -17 5 -4 -9 8 -9 19 -13 24
-10 5 3 6 0 2 -7 -4 -6 -12 -8 -18 -5 -6 4 -8 -1 -3 -15 4 -12 2 -21 -4 -21
-6 0 -10 -3 -10 -7 4 -26 -3 -34 -23 -28 -18 5 -20 4 -8 -4 19 -13 22 -68 4
-68 -17 0 -18 9 -2 27 7 8 4 7 -7 -3 -20 -18 -20 -18 4 -36 21 -16 22 -19 6
-25 -14 -5 -15 -9 -5 -21 12 -14 10 -16 -6 -14 -8 1 -24 -23 -24 -36 0 -5 4
-4 9 3 7 11 9 10 14 -3 5 -11 3 -14 -5 -9 -8 5 -9 1 -4 -12 15 -37 15 -55 0
-61 -12 -5 -12 -7 2 -18 9 -6 14 -17 11 -23 -4 -5 -2 -21 3 -34 10 -21 10 -21
5 5 -7 33 11 28 24 -6 8 -20 8 -20 13 1 4 12 2 20 -2 17 -5 -3 -18 8 -30 25
-12 16 -17 30 -11 30 6 0 11 -5 11 -11 0 -5 4 -8 9 -5 5 3 8 -2 7 -11 0 -10 6
-18 14 -18 8 -1 14 -7 12 -14 -1 -7 7 -15 18 -18 12 -3 20 -14 20 -27 0 -17 2
-18 9 -6 6 8 7 18 5 22 -9 15 3 8 17 -9 10 -11 10 -14 2 -9 -7 4 -13 3 -13 -3
0 -5 6 -12 13 -15 6 -3 3 -4 -8 -3 -12 1 -19 -3 -17 -11 1 -8 -2 -11 -8 -7 -6
3 -8 11 -5 16 4 5 1 9 -5 9 -6 0 -9 4 -6 9 3 5 -1 14 -9 21 -10 9 -15 9 -15 1
0 -6 4 -11 8 -11 4 0 8 -15 9 -32 1 -18 -1 -27 -3 -20 -8 18 -25 15 -22 -5 2
-12 -4 -18 -19 -18 -12 0 -25 -3 -29 -8 -4 -4 -12 -7 -18 -7 -5 0 -1 7 10 16
18 15 18 15 -11 10 -16 -3 -24 -3 -17 0 6 3 12 10 12 15 0 6 -6 7 -12 3 -10
-6 -10 -4 0 7 18 20 15 33 -5 18 -17 -13 -17 -12 0 7 14 17 15 26 7 45 -10 24
-10 24 -5 -3 5 -25 4 -25 -20 -15 -13 7 -20 14 -15 15 21 7 9 19 -15 14 -14
-2 -22 -9 -18 -15 3 -6 1 -7 -6 -3 -6 4 -9 11 -6 16 3 5 1 11 -4 15 -6 3 -8
13 -5 23 5 13 4 14 -4 4 -5 -8 -13 -13 -18 -12 -5 1 -10 -4 -13 -11 -2 -8 2
-10 13 -6 9 4 16 3 16 -2 0 -5 -11 -11 -24 -13 -15 -3 -23 -1 -20 6 3 7 -5 12
-16 12 -11 0 -20 -5 -20 -11 0 -5 -4 -3 -10 5 -5 9 -5 19 2 27 6 7 7 13 4 13
-4 0 2 13 13 29 11 15 18 31 14 35 -3 3 -1 6 6 6 7 0 9 5 5 12 -4 7 -3 8 4 4
9 -5 8 -15 -3 -35 -11 -22 -12 -32 -2 -44 9 -13 16 -14 27 -6 13 9 13 10 -2 6
-17 -6 -34 18 -19 28 16 9 19 45 5 59 -11 12 -11 15 2 20 8 3 12 2 9 -3 -3 -5
-1 -12 4 -15 12 -8 8 13 -7 42 -11 20 -10 25 14 47 28 26 26 32 -7 15 -13 -7
-19 -7 -19 0 0 5 4 10 9 10 9 0 5 45 -5 62 -3 4 2 5 10 2 9 -3 13 -10 10 -15
-3 -5 0 -9 7 -9 8 0 7 -5 -2 -17 -13 -16 -12 -17 3 -4 10 7 15 18 11 24 -3 5
2 16 12 24 11 7 14 13 9 13 -6 0 -15 -5 -21 -11 -7 -7 -12 -6 -17 6 -3 9 -2
13 4 10 6 -3 10 1 10 9 0 10 6 13 18 10 14 -5 14 -4 2 4 -9 7 -19 7 -25 2 -8
-7 -12 -5 -12 5 0 8 4 12 9 9 4 -3 8 0 8 6 0 8 6 8 23 0 21 -11 21 -10 3 4
-10 9 -22 13 -26 11 -5 -3 -11 2 -14 11 -3 9 -2 12 4 9 7 -4 9 3 6 18 -3 20
-1 24 15 20 10 -3 19 0 19 6 0 6 -3 10 -7 8 -5 -1 -9 1 -10 6 -6 16 -2 24 11
24 8 0 14 -5 13 -11 -1 -5 7 -11 18 -13 18 -3 18 -2 2 5 -10 4 -18 11 -18 15
3 22 0 27 -11 21 -10 -6 -10 -5 -1 8 7 8 10 17 7 21 -3 3 4 8 16 12 13 4 19
12 16 21 -3 8 -1 14 5 14 6 0 7 5 3 12 -4 7 -3 8 4 4 6 -4 8 -14 5 -24 -6 -16
-6 -16 10 0 18 18 23 33 8 23 -6 -3 -9 4 -8 15 1 11 5 20 10 20 4 0 5 5 1 12
-4 7 -3 8 4 4 7 -4 12 -3 12 2 0 5 12 17 26 27 20 13 29 14 38 5 8 -8 6 -9 -9
-4 -13 5 -5 -7 20 -32 22 -21 43 -38 47 -36 4 1 9 -2 12 -6 6 -11 56 -10 73 1
7 4 10 1 8 -10 -1 -10 -8 -17 -14 -16 -6 2 -11 -2 -11 -7 0 -16 15 -12 33 8
10 10 14 23 10 28 -4 5 -1 4 6 -3 12 -10 12 -15 1 -28 -7 -9 -8 -15 -2 -15 6
0 12 5 14 12 2 6 12 12 22 14 13 2 16 -2 11 -14 -5 -13 -3 -14 6 -5 12 12 3
37 -11 28 -5 -3 -12 0 -16 7 -4 7 -4 10 1 6 4 -4 15 -2 24 4 9 7 13 9 9 4 -4
-5 -1 -15 7 -22 18 -19 31 -18 15 1 -15 18 -8 28 20 30 10 1 29 10 41 21 11
10 23 18 25 17 11 -7 24 -2 19 7 -4 6 -3 10 2 9 4 -1 11 0 16 1 4 1 10 3 15 4
4 1 21 10 37 20 17 9 23 15 14 13 -9 -3 -22 -1 -30 4 -11 7 -9 9 8 9 12 0 27
9 33 19 13 25 13 31 -1 31 -5 0 -8 -4 -5 -8 2 -4 0 -14 -5 -22 -6 -10 -8 -1
-6 30 3 35 8 44 21 42 9 -2 15 3 14 10 -2 7 2 12 9 11 6 -1 14 4 17 12 3 10 0
12 -11 8 -12 -5 -14 -3 -8 8 8 12 6 12 -8 0 -9 -7 -14 -17 -11 -22 3 -5 0 -9
-5 -9 -14 0 -14 6 -1 30 8 15 6 21 -7 30 -15 8 -13 9 10 4 17 -4 27 -2 27 5 0
6 -3 10 -7 10 -23 -4 -33 3 -33 21 0 11 -6 20 -12 20 -8 0 -6 5 4 11 17 10 14
39 -4 39 -7 0 -6 -5 1 -13 8 -10 7 -14 -4 -14 -8 0 -12 4 -9 8 2 4 -4 15 -13
25 -16 16 -16 16 6 9 16 -5 21 -4 17 4 -4 6 -14 11 -22 11 -8 0 -14 2 -14 4 0
2 -3 13 -6 23 -6 17 -6 17 7 0 13 -16 14 -14 16 15 1 20 -1 26 -5 17 -6 -14
-11 -13 -33 12 -14 16 -24 31 -20 34 3 3 -3 3 -13 -1 -14 -5 -15 -9 -4 -15 7
-5 8 -9 2 -9 -5 0 -19 6 -29 14 -11 8 -25 12 -32 9 -7 -3 -13 0 -13 7 0 6 -5
8 -12 4 -7 -4 -8 -3 -4 5 6 9 11 9 22 0 12 -10 13 -9 8 5 -4 10 -12 15 -20 12
-20 -8 -39 21 -25 38 9 10 8 15 -3 19 -11 4 -13 1 -9 -10 4 -11 2 -14 -5 -9
-8 5 -10 1 -5 -10 5 -13 3 -15 -7 -9 -9 5 -11 4 -6 -4 4 -6 12 -9 17 -6 5 3 6
-1 2 -10 -4 -12 -8 -13 -13 -5 -5 7 -22 10 -44 7 -31 -4 -35 -3 -25 9 9 11 9
14 0 14 -7 0 -9 5 -5 11 4 8 0 8 -15 0 -25 -14 -28 -23 -3 -14 9 3 14 3 10 -2
-14 -15 -56 -13 -62 2 -4 11 -2 13 9 9 8 -3 15 -2 15 3 0 5 -9 11 -19 14 -16
4 -19 0 -15 -27 2 -22 1 -27 -6 -16 -5 8 -10 11 -10 7 0 -4 -8 -3 -18 2 -12 6
-23 6 -28 1 -12 -12 -56 -1 -48 11 3 5 3 9 0 9 -3 0 -8 -5 -11 -10 -9 -15 44
-33 60 -20 9 7 16 5 26 -7 13 -16 12 -17 -3 -5 -11 9 -18 10 -23 2 -4 -6 -12
-9 -18 -7 -6 2 -19 -4 -29 -12 -10 -9 -24 -16 -31 -16 -7 -1 -11 -7 -9 -14 1
-7 -2 -10 -8 -6 -5 3 -10 2 -10 -4 0 -6 -7 -7 -17 -4 -12 5 -14 3 -8 -8 5 -8
-1 -5 -13 5 -12 11 -22 15 -22 11 0 -5 -7 0 -15 11 -15 19 -15 19 -30 0 -8
-11 -15 -16 -15 -12 0 5 -7 3 -15 -4 -8 -7 -15 -9 -15 -5 0 4 11 16 25 27 14
11 23 24 20 29 -4 5 0 9 7 9 10 0 10 2 -1 9 -8 5 -21 7 -30 4 -10 -3 -12 -1
-6 4 15 12 17 33 2 33 -8 0 -7 4 3 10 11 7 11 10 2 10 -7 0 -10 5 -6 11 9 16
23 -9 19 -33 -2 -10 0 -16 6 -13 5 4 7 11 4 16 -4 5 2 10 12 10 17 1 17 2 0 6
-9 2 -15 9 -12 14 4 5 1 9 -5 9 -6 0 -8 4 -5 10 4 6 -1 7 -11 3 -13 -5 -15 -3
-8 8 12 19 12 72 -1 81 -6 5 -2 8 9 8 13 0 16 -5 11 -17 -5 -14 -3 -15 6 -6 9
9 8 17 -5 34 -11 17 -13 26 -4 36 8 10 7 13 -3 13 -10 0 -11 3 -3 8 15 9 21
43 11 59 -4 6 -3 14 3 18 5 3 10 11 10 16 0 6 -6 7 -12 3 -10 -6 -10 -4 0 8 7
9 12 25 10 35 -2 14 3 17 20 16 16 -2 21 1 16 9 -4 6 5 3 19 -8 15 -10 27 -23
27 -28z m180 -8 c0 -5 -11 3 -25 18 -14 15 -25 29 -25 32 0 3 11 -5 25 -18 14
-13 25 -27 25 -32z m-344 -323 c-1 -8 -5 -17 -8 -21 -5 -4 -4 16 1 34 3 9 9
-1 7 -13z m70 -72 c-2 -9 -9 -19 -17 -21 -11 -3 -11 -1 1 7 13 10 13 11 0 11
-13 0 -13 1 0 10 19 12 19 13 16 -7z m38 -49 c3 -8 10 -13 15 -10 5 3 11 -1
15 -9 3 -8 0 -17 -6 -21 -7 -4 -8 -3 -4 4 4 7 2 12 -3 12 -11 0 -15 -13 -12
-40 2 -12 0 -13 -7 -1 -10 14 -32 7 -32 -10 0 -6 5 -7 11 -3 7 4 6 -3 -2 -17
-7 -13 -14 -27 -15 -31 -1 -5 -3 -11 -4 -15 -1 -5 -2 -11 -1 -15 0 -5 -4 -8
-9 -8 -6 0 -10 6 -9 13 3 24 -1 38 -9 33 -10 -6 -9 25 2 42 4 6 4 17 1 22 -3
6 -1 10 4 10 6 0 11 10 11 22 l0 21 23 -21 c17 -17 24 -18 24 -8 0 8 -4 14 -8
13 -7 -2 -9 3 -9 23 0 16 17 12 24 -6z m564 -14 c7 -11 8 -20 3 -20 -5 0 -11
7 -15 15 -3 9 -12 12 -23 9 -15 -5 -16 -4 -3 5 20 15 23 14 38 -9z m-623 -170
c3 -6 -1 -7 -9 -4 -18 7 -21 14 -7 14 6 0 13 -4 16 -10z m-11 -26 c3 -8 2 -12
-4 -9 -6 3 -10 10 -10 16 0 14 7 11 14 -7z m850 -81 c-1 -12 3 -23 9 -23 5 0
8 -3 4 -6 -3 -3 -15 -3 -27 1 -16 5 -19 10 -10 20 7 8 9 18 6 23 -3 5 1 9 8 9
8 0 12 -10 10 -24z m-164 -73 c0 -5 -5 -10 -11 -10 -5 0 -7 5 -4 10 3 6 8 10
11 10 2 0 4 -4 4 -10z m-10 -44 c0 -11 -19 -15 -25 -6 -3 5 1 10 9 10 9 0 16
-2 16 -4z m-117 -596 c4 0 6 4 3 8 -6 10 50 9 60 -1 12 -11 26 -8 18 4 -5 8
-1 8 14 0 25 -13 35 -14 28 -3 -6 10 31 9 41 -1 13 -13 11 -36 -3 -41 -8 -3
-14 -10 -14 -16 0 -15 58 29 65 49 4 13 2 13 -9 -1 -17 -23 -22 -23 -22 0 0
12 7 18 21 16 11 -1 19 -6 18 -12 -2 -6 4 -9 12 -6 8 4 13 9 11 13 -2 3 8 7
22 8 l27 1 -28 -15 c-30 -15 -32 -35 -4 -39 9 -1 15 2 11 7 -3 5 -10 7 -15 4
-5 -4 -9 -1 -9 4 0 16 26 13 40 -4 9 -11 16 -13 24 -5 7 7 6 14 -3 23 -10 10
-11 8 -5 -8 7 -18 6 -19 -9 -6 -10 8 -16 14 -15 15 2 1 12 8 22 16 11 9 17 10
13 3 -6 -9 1 -11 22 -8 19 2 31 -2 35 -11 6 -16 -30 -39 -37 -24 -3 6 -4 5 -3
-2 3 -16 28 -18 38 -4 4 6 14 2 25 -11 l19 -22 14 22 c12 19 11 21 -2 9 -12
-10 -17 -10 -26 0 -16 19 -18 33 -7 36 6 1 11 -2 11 -8 3 -20 4 -21 22 -11 11
6 24 6 33 0 7 -5 9 -9 4 -9 -6 0 -16 -10 -24 -22 -13 -20 -12 -22 1 -11 8 7
19 9 23 5 5 -4 5 -2 2 4 -4 7 -1 14 7 17 8 3 17 -1 20 -8 3 -9 13 -12 23 -9
14 4 15 4 4 -4 -7 -5 -9 -12 -5 -14 5 -3 3 -3 -5 -1 -7 2 -21 -2 -29 -9 -13
-11 -14 -11 -8 0 6 10 0 12 -25 9 -21 -3 -41 2 -51 11 -13 11 -21 12 -31 4 -9
-8 -17 -8 -23 -2 -15 15 -77 18 -93 6 -11 -8 -13 -8 -7 2 10 17 -4 15 -28 -5
-21 -18 -21 -18 -2 5 11 12 14 22 9 22 -6 0 -16 -7 -23 -15 -7 -8 -16 -13 -20
-10 -5 3 -11 1 -15 -4 -3 -6 -13 -7 -22 -4 -12 5 -14 3 -8 -7 5 -8 4 -11 -3
-6 -6 3 -16 -3 -22 -14 -6 -11 -14 -18 -18 -16 -5 3 -14 0 -22 -5 -13 -8 -13
-10 0 -20 13 -9 13 -10 0 -6 -8 2 -15 11 -15 20 0 8 -4 19 -9 24 -5 4 -6 3 -2
-4 4 -7 2 -13 -4 -13 -6 0 -8 -4 -5 -10 3 -6 -1 -7 -10 -4 -12 5 -13 9 -4 20
8 10 8 14 0 14 -6 0 -11 -5 -11 -11 0 -6 -7 -9 -15 -5 -18 6 -47 -3 -40 -13 2
-4 -2 -8 -9 -8 -7 0 -13 6 -13 14 0 7 3 11 5 8 7 -7 32 15 32 27 0 6 -7 5 -16
-2 -13 -12 -14 -10 -3 13 12 26 13 26 29 10 10 -10 15 -22 12 -27 -3 -5 0 -6
7 -1 9 5 7 13 -9 30 -13 13 -19 29 -15 37 3 7 -2 3 -13 -9 -17 -19 -21 -20
-26 -7 -3 8 -2 13 2 10 9 -5 43 28 38 37 -2 2 2 1 8 -4 5 -5 14 -9 19 -9z
m418 -13 c-10 -9 -11 -8 -5 6 3 10 9 15 12 12 3 -3 0 -11 -7 -18z m-427 -105
c3 -5 -1 -9 -9 -9 -8 0 -15 4 -15 9 0 4 4 8 9 8 6 0 12 -4 15 -8z"/>
<path d="M1843 2499 c9 -5 17 -15 17 -20 0 -6 -4 -8 -9 -4 -5 3 -12 1 -15 -4
-7 -10 20 -9 30 2 9 8 -15 37 -30 37 -6 0 -3 -5 7 -11z"/>
<path d="M1831 2436 c-8 -10 -9 -16 -1 -21 6 -3 7 -12 3 -18 -4 -7 2 -5 13 3
29 22 30 24 12 17 -10 -3 -20 -2 -23 3 -3 4 1 10 7 13 7 2 10 7 7 11 -3 4 -12
0 -18 -8z"/>
<path d="M1974 2438 c-4 -6 -3 -8 4 -4 6 3 13 -3 17 -14 3 -11 11 -20 16 -20
5 0 2 11 -7 25 -19 29 -20 29 -30 13z"/>
<path d="M1910 2411 c0 -6 4 -13 10 -16 6 -3 7 1 4 9 -7 18 -14 21 -14 7z"/>
<path d="M1960 2416 c0 -2 7 -7 16 -10 8 -3 12 -2 9 4 -6 10 -25 14 -25 6z"/>
<path d="M2069 2396 c8 -10 9 -16 1 -19 -6 -3 -5 -4 2 -3 19 4 20 23 2 30 -14
5 -15 4 -5 -8z"/>
<path d="M1854 2388 c-4 -6 -3 -8 4 -4 5 3 12 1 14 -6 3 -8 6 -9 11 -1 4 6 0
13 -8 17 -8 3 -17 0 -21 -6z"/>
<path d="M2033 2378 c-2 -18 0 -20 7 -8 12 18 13 30 2 30 -4 0 -9 -10 -9 -22z"/>
<path d="M1827 2367 c-6 -18 3 -38 15 -31 6 4 5 10 -3 16 -10 7 -8 8 9 5 27
-6 28 -1 3 12 -14 8 -20 7 -24 -2z"/>
<path d="M1940 2330 c8 -5 20 -10 25 -10 6 0 3 5 -5 10 -8 5 -19 10 -25 10 -5
0 -3 -5 5 -10z"/>
<path d="M2193 2333 c4 -3 0 -11 -8 -17 -11 -8 -12 -15 -4 -26 9 -13 10 -13 6
2 -3 9 1 19 9 22 13 5 19 -6 15 -27 -1 -5 3 -6 8 -2 12 7 -7 55 -22 55 -6 0
-7 -3 -4 -7z"/>
<path d="M1810 2326 c0 -2 8 -10 18 -17 15 -13 16 -12 3 4 -13 16 -21 21 -21
13z"/>
<path d="M1924 2306 c-3 -9 -13 -12 -22 -9 -9 4 -14 3 -11 -1 11 -12 48 -15
55 -4 5 7 2 8 -6 3 -10 -6 -12 -4 -7 8 3 10 4 17 1 17 -2 0 -7 -6 -10 -14z"/>
<path d="M1987 2303 c5 -12 3 -14 -8 -8 -8 5 -11 4 -6 0 4 -5 14 -10 22 -11
12 -2 12 2 5 17 -13 23 -22 25 -13 2z"/>
<path d="M2270 2290 c0 -5 5 -10 11 -10 5 0 7 5 4 10 -3 6 -8 10 -11 10 -2 0
-4 -4 -4 -10z"/>
<path d="M2080 2286 c0 -2 7 -7 16 -10 8 -3 12 -2 9 4 -6 10 -25 14 -25 6z"/>
<path d="M2350 2280 c8 -5 20 -10 25 -10 6 0 3 5 -5 10 -8 5 -19 10 -25 10 -5
0 -3 -5 5 -10z"/>
<path d="M1879 2254 c-5 -15 -8 -29 -5 -31 2 -2 8 10 14 26 13 38 5 41 -9 5z"/>
<path d="M2112 2251 c-6 -17 -9 -31 -6 -31 7 0 25 52 20 57 -2 2 -8 -10 -14
-26z"/>
<path d="M2233 2264 c0 -7 6 -15 13 -18 9 -3 11 1 7 11 -5 12 -3 14 8 8 8 -5
11 -4 6 0 -13 14 -34 14 -34 -1z"/>
<path d="M1835 2259 c-4 -6 -5 -12 -2 -15 2 -3 7 2 10 11 7 17 1 20 -8 4z"/>
<path d="M2180 2259 c0 -5 -4 -7 -10 -4 -6 4 -7 -1 -3 -11 4 -11 8 -13 11 -6
2 7 8 10 13 7 5 -4 6 1 3 9 -7 18 -14 21 -14 5z"/>
<path d="M1950 2249 c0 -5 5 -7 10 -4 6 3 10 8 10 11 0 2 -4 4 -10 4 -5 0 -10
-5 -10 -11z"/>
<path d="M2055 2249 c-6 -8 -4 -10 5 -4 10 6 12 4 6 -11 -6 -15 -5 -17 5 -6 9
9 10 15 2 23 -8 8 -13 7 -18 -2z"/>
<path d="M2360 2250 c-9 -6 -10 -10 -3 -10 6 0 15 5 18 10 8 12 4 12 -15 0z"/>
<path d="M1995 2239 c-4 -6 -5 -12 -2 -15 2 -3 7 2 10 11 7 17 1 20 -8 4z"/>
<path d="M1915 2230 c6 -10 4 -12 -11 -6 -15 6 -17 5 -6 -5 9 -9 15 -10 23 -2
8 8 7 13 -2 18 -8 6 -10 4 -4 -5z"/>
<path d="M2017 2214 c2 -7 11 -10 19 -7 19 7 18 10 -5 16 -13 3 -18 1 -14 -9z"/>
<path d="M2087 2209 c7 -7 15 -10 18 -7 3 3 -2 9 -12 12 -14 6 -15 5 -6 -5z"/>
<path d="M2145 2209 c-3 -4 2 -6 10 -5 21 3 28 13 10 13 -9 0 -18 -4 -20 -8z"/>
<path d="M2210 2216 c0 -2 7 -7 16 -10 8 -3 12 -2 9 4 -6 10 -25 14 -25 6z"/>
<path d="M2320 2199 c13 -23 22 -25 13 -2 -5 12 -3 14 8 8 8 -5 11 -4 6 0 -4
5 -14 10 -22 11 -12 2 -12 -2 -5 -17z"/>
<path d="M2374 2208 c-5 -7 -3 -8 6 -3 10 6 12 4 7 -8 -4 -11 -2 -14 9 -10 11
4 12 9 3 19 -14 17 -16 17 -25 2z"/>
<path d="M1832 2198 c2 -6 10 -13 16 -14 7 -1 8 0 2 3 -5 2 -8 9 -4 14 3 5 0
9 -6 9 -7 0 -10 -5 -8 -12z"/>
<path d="M2199 2174 c-5 -15 -8 -29 -5 -31 2 -2 8 10 14 26 13 38 5 41 -9 5z"/>
<path d="M1879 2178 c15 -21 31 -23 31 -6 0 6 -3 8 -7 5 -3 -4 -13 -1 -22 6
-14 11 -14 10 -2 -5z"/>
<path d="M2140 2179 c0 -5 -6 -7 -12 -3 -7 4 -9 3 -5 -1 13 -15 36 -14 30 1
-6 17 -13 18 -13 3z"/>
<path d="M2000 2166 c0 -8 4 -17 9 -20 5 -4 7 3 4 14 -6 23 -13 26 -13 6z"/>
<path d="M2070 2170 c0 -5 5 -10 11 -10 5 0 7 5 4 10 -3 6 -8 10 -11 10 -2 0
-4 -4 -4 -10z"/>
<path d="M2290 2172 c0 -5 7 -9 15 -9 8 0 12 4 9 9 -3 4 -9 8 -15 8 -5 0 -9
-4 -9 -8z"/>
<path d="M2350 2171 c0 -6 4 -12 8 -15 5 -3 9 1 9 9 0 8 -4 15 -9 15 -4 0 -8
-4 -8 -9z"/>
<path d="M2436 2165 c-9 -26 -7 -32 5 -12 6 10 9 21 6 23 -2 3 -7 -2 -11 -11z"/>
<path d="M1920 2166 c0 -2 7 -7 16 -10 8 -3 12 -2 9 4 -6 10 -25 14 -25 6z"/>
<path d="M2455 2150 c-3 -6 1 -13 9 -16 9 -3 13 -11 9 -18 -3 -6 -2 -7 2 -3
16 14 14 36 -3 30 -10 -4 -13 -2 -8 5 4 7 5 12 2 12 -3 0 -8 -5 -11 -10z"/>
<path d="M2512 2151 c-11 -6 -10 -10 4 -15 9 -3 19 -4 22 -1 3 3 0 5 -7 5 -7
0 -9 5 -6 10 7 12 4 12 -13 1z"/>
<path d="M2060 2136 c0 -8 4 -17 9 -20 5 -4 7 3 4 14 -6 23 -13 26 -13 6z"/>
<path d="M2217 2139 c7 -7 15 -10 18 -7 3 3 -2 9 -12 12 -14 6 -15 5 -6 -5z"/>
<path d="M1950 2129 c0 -5 5 -7 10 -4 6 3 10 8 10 11 0 2 -4 4 -10 4 -5 0 -10
-5 -10 -11z"/>
<path d="M2020 2130 c-8 -5 -10 -10 -5 -10 6 0 17 5 25 10 8 5 11 10 5 10 -5
0 -17 -5 -25 -10z"/>
<path d="M2196 2113 c-6 -14 -5 -15 5 -6 7 7 10 15 7 18 -3 3 -9 -2 -12 -12z"/>
<path d="M2315 2120 c-4 -6 1 -7 11 -3 13 5 15 3 9 -7 -5 -9 -4 -11 4 -6 6 4
9 12 6 17 -8 12 -22 12 -30 -1z"/>
<path d="M2353 2101 c-15 -24 0 -52 19 -33 7 8 9 13 3 12 -22 -5 -27 1 -15 15
7 9 11 17 9 20 -3 2 -10 -4 -16 -14z"/>
<path d="M1948 2103 c6 -2 10 -9 6 -14 -3 -5 0 -9 6 -9 6 0 8 -5 4 -12 -5 -9
-2 -9 9 1 18 14 23 26 8 17 -5 -3 -11 1 -15 9 -3 8 -11 15 -18 14 -10 0 -10
-2 0 -6z"/>
<path d="M1884 2089 c-3 -6 -2 -15 4 -21 6 -6 12 -6 17 3 6 8 4 10 -5 4 -10
-6 -12 -4 -7 8 7 19 2 23 -9 6z"/>
<path d="M1930 2070 c8 -5 13 -10 10 -11 -34 -6 -43 -8 -48 -13 -8 -9 30 -2
46 7 14 9 7 27 -11 27 -7 0 -6 -4 3 -10z"/>
<path d="M2445 2072 c-13 -9 -17 -32 -6 -32 5 0 11 9 14 20 6 22 6 22 -8 12z"/>
<path d="M2487 2049 c7 -7 15 -10 18 -7 3 3 -2 9 -12 12 -14 6 -15 5 -6 -5z"/>
<path d="M2538 2013 c5 -21 7 -23 10 -9 2 10 0 22 -6 28 -6 6 -7 0 -4 -19z"/>
<path d="M2485 1970 c-3 -6 1 -7 9 -4 18 7 21 14 7 14 -6 0 -13 -4 -16 -10z"/>
<path d="M2546 1968 c3 -4 9 -8 15 -8 5 0 9 4 9 8 0 5 -7 9 -15 9 -8 0 -12 -4
-9 -9z"/>
<path d="M2495 1949 c-6 -8 -4 -10 5 -4 10 6 12 4 6 -11 -6 -15 -5 -17 5 -6 9
9 10 15 2 23 -8 8 -13 7 -18 -2z"/>
<path d="M2553 1915 c0 -8 4 -15 9 -15 4 0 8 4 8 9 0 6 -4 12 -8 15 -5 3 -9
-1 -9 -9z"/>
<path d="M2525 1890 c-3 -5 -1 -10 4 -10 6 0 11 5 11 10 0 6 -2 10 -4 10 -3 0
-8 -4 -11 -10z"/>
<path d="M2540 1821 c0 -6 4 -13 10 -16 6 -3 7 1 4 9 -7 18 -14 21 -14 7z"/>
<path d="M2560 1765 c-7 -8 -9 -15 -4 -15 4 0 3 -5 -4 -12 -7 -7 -12 -17 -12
-22 1 -10 24 23 25 34 0 3 4 11 8 18 11 17 2 15 -13 -3z"/>
<path d="M2493 1725 c0 -8 3 -13 5 -10 3 3 10 0 17 -5 8 -7 12 -5 12 5 0 8 -3
13 -5 10 -3 -3 -10 0 -17 5 -8 7 -12 5 -12 -5z"/>
<path d="M2546 1688 c3 -5 10 -6 15 -3 13 9 11 12 -6 12 -8 0 -12 -4 -9 -9z"/>
<path d="M2575 1680 c-3 -6 1 -7 9 -4 18 7 21 14 7 14 -6 0 -13 -4 -16 -10z"/>
<path d="M2516 1671 c-3 -5 0 -14 8 -20 10 -9 15 -8 19 3 4 11 1 13 -10 9 -11
-4 -14 -2 -9 5 4 7 5 12 2 12 -3 0 -7 -4 -10 -9z"/>
<path d="M2490 1609 c0 -5 5 -7 12 -3 8 5 9 1 4 -12 -5 -14 -4 -16 5 -7 6 6 8
16 5 22 -9 14 -26 14 -26 0z"/>
<path d="M2411 1579 c-12 -10 -27 -17 -31 -14 -4 2 -15 -4 -25 -15 -9 -10 -23
-16 -31 -13 -8 3 -14 0 -14 -5 0 -19 18 -23 33 -8 8 8 18 12 22 8 5 -4 5 -2 1
5 -3 6 -2 14 4 18 5 3 10 1 10 -4 0 -6 5 -11 11 -11 5 0 7 5 4 10 -3 6 1 10 9
10 9 0 16 5 16 11 0 5 5 7 10 4 6 -4 7 -11 4 -17 -4 -6 -2 -8 4 -5 10 7 11 31
1 41 -2 2 -15 -4 -28 -15z"/>
<path d="M2550 1590 c0 -5 5 -10 10 -10 6 0 10 5 10 10 0 6 -4 10 -10 10 -5 0
-10 -4 -10 -10z"/>
<path d="M2001 1580 c-11 -6 -11 -12 -1 -26 9 -16 11 -16 6 -2 -3 10 -1 20 4
23 6 4 10 1 10 -4 0 -6 6 -11 13 -11 7 0 21 -12 32 -27 31 -42 54 -63 68 -62
9 0 9 2 -1 6 -10 4 -10 8 0 21 8 10 9 13 1 9 -6 -4 -14 -3 -18 3 -4 6 -10 8
-15 5 -5 -3 -14 3 -19 14 -16 30 -65 61 -80 51z m114 -80 c3 -5 1 -10 -4 -10
-6 0 -11 5 -11 10 0 6 2 10 4 10 3 0 8 -4 11 -10z"/>
<path d="M2518 1563 c7 -3 16 -2 19 1 4 3 -2 6 -13 5 -11 0 -14 -3 -6 -6z"/>
<path d="M2455 1551 c-9 -15 15 -25 28 -12 9 9 7 10 -7 5 -13 -5 -17 -4 -12 4
4 7 5 12 2 12 -3 0 -7 -4 -11 -9z"/>
<path d="M2546 1544 c-5 -14 -4 -15 9 -4 17 14 19 20 6 20 -5 0 -12 -7 -15
-16z"/>
<path d="M1976 1536 c3 -8 12 -17 20 -20 11 -4 12 -2 1 14 -14 23 -29 27 -21
6z"/>
<path d="M2030 1530 c8 -5 20 -10 25 -10 6 0 3 5 -5 10 -8 5 -19 10 -25 10 -5
0 -3 -5 5 -10z"/>
<path d="M2425 1529 c-4 -6 -4 -13 -1 -16 3 -4 6 -1 6 6 0 7 5 9 12 5 7 -4 8
-3 4 4 -9 15 -13 15 -21 1z"/>
<path d="M2360 1516 c0 -2 7 -7 16 -10 8 -3 12 -2 9 4 -6 10 -25 14 -25 6z"/>
<path d="M2046 1501 c-17 -6 -17 -8 -4 -14 10 -3 19 0 22 9 3 8 4 14 3 13 -1
0 -11 -4 -21 -8z"/>
<path d="M2155 1499 c-4 -6 -5 -12 -2 -15 2 -3 7 2 10 11 7 17 1 20 -8 4z"/>
<path d="M2450 1504 c0 -2 9 -8 20 -14 11 -6 20 -7 20 -2 0 6 -9 12 -20 15
-11 3 -20 3 -20 1z"/>
<path d="M1987 1483 c5 -12 3 -14 -7 -8 -8 5 -11 4 -6 -3 4 -6 13 -9 22 -5 11
4 12 9 3 19 -15 19 -20 18 -12 -3z"/>
<path d="M2305 1487 c-15 -12 -16 -15 -4 -22 8 -5 11 -5 7 0 -4 4 0 14 10 21
23 18 11 18 -13 1z"/>
<path d="M2426 1486 c6 -15 4 -17 -6 -11 -9 6 -11 4 -5 -4 5 -9 10 -10 18 -2
8 8 7 14 -2 24 -10 10 -11 8 -5 -7z"/>
<path d="M2070 1471 c0 -5 8 -15 18 -22 15 -12 16 -12 5 2 -7 9 -10 19 -6 22
3 4 1 7 -5 7 -7 0 -12 -4 -12 -9z"/>
<path d="M1941 1467 c2 -1 13 -9 24 -17 19 -14 19 -14 6 3 -7 9 -18 17 -24 17
-6 0 -8 -1 -6 -3z"/>
<path d="M2192 1456 c7 -8 15 -12 17 -11 5 6 -10 25 -20 25 -5 0 -4 -6 3 -14z"/>
<path d="M1913 1438 c-2 -18 0 -20 7 -8 12 18 13 30 2 30 -4 0 -9 -10 -9 -22z"/>
<path d="M2034 1445 c1 -8 6 -18 11 -22 4 -5 5 -2 0 6 -6 11 -4 13 8 8 23 -9
21 0 -2 13 -15 7 -19 7 -17 -5z"/>
<path d="M2435 1450 c-3 -5 -1 -10 4 -10 6 0 11 5 11 10 0 6 -2 10 -4 10 -3 0
-8 -4 -11 -10z"/>
<path d="M1934 1428 c-5 -7 -2 -8 6 -3 9 6 10 2 5 -16 -4 -13 -6 -22 -3 -19
27 34 28 38 14 43 -9 4 -18 1 -22 -5z"/>
<path d="M2091 1414 c0 -11 3 -14 6 -6 3 7 2 16 -1 19 -3 4 -6 -2 -5 -13z"/>
<path d="M2006 1408 c3 -4 9 -8 15 -8 5 0 9 4 9 8 0 5 -7 9 -15 9 -8 0 -12 -4
-9 -9z"/>
<path d="M2118 1412 c9 -6 6 -12 -13 -20 -14 -6 -25 -17 -25 -24 0 -9 3 -10 8
-2 4 6 17 16 30 23 22 12 22 31 -1 31 -9 0 -8 -3 1 -8z"/>
<path d="M1970 1381 c0 -8 -7 -11 -17 -6 -15 5 -16 4 -5 -6 9 -10 15 -10 24
-1 6 6 9 15 5 19 -4 3 -7 1 -7 -6z"/>
<path d="M1895 1350 c-6 -9 -4 -11 5 -5 10 6 12 4 6 -11 -4 -10 -4 -15 0 -11
4 4 13 -1 21 -11 12 -16 13 -16 6 2 -5 14 -3 17 7 11 9 -6 11 -4 6 4 -5 7 -10
10 -14 7 -3 -3 -10 2 -17 11 -9 13 -14 13 -20 3z"/>
<path d="M1870 1330 c6 -11 13 -20 16 -20 2 0 0 9 -6 20 -6 11 -13 20 -16 20
-2 0 0 -9 6 -20z"/>
<path d="M1974 1328 c-5 -7 -3 -8 6 -3 9 6 12 4 8 -6 -4 -10 2 -14 18 -14 13
0 24 1 24 1 0 1 -11 9 -24 18 -18 11 -27 13 -32 4z"/>
<path d="M1960 1290 c8 -5 20 -10 25 -10 6 0 3 5 -5 10 -8 5 -19 10 -25 10 -5
0 -3 -5 5 -10z"/>
<path d="M1914 1282 c3 -5 0 -13 -6 -15 -9 -4 -10 -6 -1 -6 17 -1 25 16 12 25
-7 4 -9 3 -5 -4z"/>
<path d="M2016 1281 c-4 -5 -2 -12 3 -15 5 -4 12 -2 15 3 4 5 2 12 -3 15 -5 4
-12 2 -15 -3z"/>
<path d="M1996 1252 c-3 -4 4 -9 15 -9 23 -2 25 3 4 10 -8 4 -16 3 -19 -1z"/>
<path d="M1920 1199 c13 -23 22 -25 13 -2 -5 12 -3 14 8 8 8 -5 11 -4 6 0 -4
5 -14 10 -22 11 -12 2 -12 -2 -5 -17z"/>
<path d="M1985 1200 c-3 -6 1 -7 9 -4 18 7 21 14 7 14 -6 0 -13 -4 -16 -10z"/>
<path d="M1876 1183 c-6 -14 -5 -15 5 -6 7 7 10 15 7 18 -3 3 -9 -2 -12 -12z"/>
<path d="M1956 1183 c-6 -14 -5 -15 5 -6 7 7 10 15 7 18 -3 3 -9 -2 -12 -12z"/>
<path d="M1948 1138 c2 -10 6 -18 7 -18 1 0 5 8 7 18 3 11 0 19 -7 19 -7 0
-10 -8 -7 -19z"/>
<path d="M1855 1124 l-30 -26 33 22 c17 12 32 23 32 26 0 7 -4 5 -35 -22z"/>
<path d="M1972 1125 c1 -11 -3 -29 -7 -40 -10 -24 -5 -19 19 19 10 16 13 26 8
22 -6 -3 -12 0 -15 6 -3 7 -5 4 -5 -7z"/>
<path d="M1851 1096 c-9 -10 -8 -15 2 -19 8 -3 13 3 13 14 0 23 0 23 -15 5z"/>
<path d="M1930 1100 c-9 -6 -10 -10 -3 -10 6 0 15 5 18 10 8 12 4 12 -15 0z"/>
<path d="M1895 1049 c-6 -8 -4 -10 5 -4 10 6 12 4 6 -11 -6 -15 -5 -17 5 -6 9
9 10 15 2 23 -8 8 -13 7 -18 -2z"/>
<path d="M1930 1048 c0 -4 4 -8 9 -8 6 0 12 4 15 8 3 5 -1 9 -9 9 -8 0 -15 -4
-15 -9z"/>
<path d="M1870 1033 c0 -6 8 -17 18 -24 16 -13 16 -13 2 6 -8 11 -16 22 -17
24 -2 2 -3 0 -3 -6z"/>
<path d="M1846 1013 c-6 -14 -5 -15 5 -6 7 7 10 15 7 18 -3 3 -9 -2 -12 -12z"/>
<path d="M1964 1016 c3 -10 2 -24 -2 -30 -14 -18 -23 -48 -12 -41 6 3 10 12
10 20 0 8 6 18 14 22 12 7 12 11 -1 28 -14 18 -15 18 -9 1z"/>
<path d="M1856 991 c-3 -5 0 -14 8 -20 10 -9 15 -8 19 3 4 11 1 13 -10 9 -11
-4 -14 -2 -9 5 4 7 5 12 2 12 -3 0 -7 -4 -10 -9z"/>
<path d="M1789 965 c-1 -3 -2 -8 -3 -12 -1 -5 -5 -13 -9 -20 -6 -10 -2 -11 32
-4 2 1 -2 7 -8 14 -6 8 -8 17 -4 20 3 4 3 7 0 7 -4 0 -8 -2 -8 -5z"/>
<path d="M1910 951 c0 -10 29 -36 34 -30 1 2 -6 12 -16 22 -10 9 -18 13 -18 8z"/>
<path d="M1886 935 c-9 -26 -7 -32 5 -12 6 10 9 21 6 23 -2 3 -7 -2 -11 -11z"/>
<path d="M1965 930 c-3 -5 -1 -10 4 -10 6 0 11 5 11 10 0 6 -2 10 -4 10 -3 0
-8 -4 -11 -10z"/>
<path d="M2010 848 c0 -6 3 -8 7 -5 3 4 13 1 22 -6 14 -11 14 -10 2 6 -15 20
-31 22 -31 5z"/>
<path d="M1975 831 c-3 -5 -2 -12 3 -15 5 -3 9 1 9 9 0 17 -3 19 -12 6z"/>
<path d="M2016 802 c-3 -5 1 -9 9 -9 8 0 12 4 9 9 -3 4 -7 8 -9 8 -2 0 -6 -4
-9 -8z"/>
<path d="M1814 1992 c3 -5 0 -13 -6 -15 -9 -4 -10 -6 -1 -6 17 -1 25 16 12 25
-7 4 -9 3 -5 -4z"/>
<path d="M1786 1952 c-2 -4 -1 -14 4 -21 10 -17 31 -5 23 14 -6 16 -19 20 -27
7z"/>
<path d="M2386 1023 c10 -7 22 -13 26 -13 5 0 3 6 -4 13 -7 8 -19 14 -26 14
-11 0 -10 -4 4 -14z"/>
<path d="M2474 1026 c-10 -8 -16 -18 -11 -22 4 -4 7 -2 7 4 0 7 7 12 15 12 8
0 15 5 15 10 0 13 -3 13 -26 -4z"/>
<path d="M2327 1009 c4 -13 8 -18 11 -10 2 7 -1 18 -6 23 -8 8 -9 4 -5 -13z"/>
<path d="M2353 1015 c0 -8 4 -15 9 -15 4 0 8 4 8 9 0 6 -4 12 -8 15 -5 3 -9
-1 -9 -9z"/>
<path d="M2670 1026 c0 -2 7 -7 16 -10 8 -3 12 -2 9 4 -6 10 -25 14 -25 6z"/>
<path d="M2430 1000 c0 -5 5 -10 11 -10 5 0 7 5 4 10 -3 6 -8 10 -11 10 -2 0
-4 -4 -4 -10z"/>
<path d="M2445 964 c-9 -14 -14 -28 -11 -32 3 -3 6 -1 6 4 0 6 9 20 20 32 12
12 17 22 12 22 -6 0 -17 -12 -27 -26z"/>
<path d="M2410 970 c0 -5 5 -10 10 -10 6 0 10 5 10 10 0 6 -4 10 -10 10 -5 0
-10 -4 -10 -10z"/>
<path d="M1495 2779 c-4 -6 -5 -12 -2 -15 2 -3 7 2 10 11 7 17 1 20 -8 4z"/>
<path d="M1675 2770 c3 -5 8 -10 11 -10 2 0 4 5 4 10 0 6 -5 10 -11 10 -5 0
-7 -4 -4 -10z"/>
<path d="M1595 2751 c-3 -5 -2 -12 3 -15 5 -3 9 1 9 9 0 17 -3 19 -12 6z"/>
<path d="M1594 2686 c1 -8 5 -18 8 -22 4 -3 5 1 4 10 -1 8 -5 18 -8 22 -4 3
-5 -1 -4 -10z"/>
<path d="M1676 2673 c-6 -14 -5 -15 5 -6 7 7 10 15 7 18 -3 3 -9 -2 -12 -12z"/>
<path d="M1825 2660 c10 -11 20 -18 23 -16 5 6 -23 36 -34 36 -4 0 1 -9 11
-20z"/>
<path d="M1409 2623 c-13 -15 -12 -15 11 -3 34 17 36 20 18 20 -9 0 -22 -7
-29 -17z"/>
<path d="M1880 2621 c0 -6 4 -13 10 -16 6 -3 7 1 4 9 -7 18 -14 21 -14 7z"/>
<path d="M1590 2556 c0 -2 7 -7 16 -10 8 -3 12 -2 9 4 -6 10 -25 14 -25 6z"/>
<path d="M1594 2516 c1 -8 5 -18 8 -22 4 -3 5 1 4 10 -1 8 -5 18 -8 22 -4 3
-5 -1 -4 -10z"/>
<path d="M2165 2450 c-3 -5 -5 -10 -3 -11 33 -8 38 -7 27 7 -14 17 -16 17 -24
4z"/>
<path d="M946 2423 c-6 -14 -5 -15 5 -6 7 7 10 15 7 18 -3 3 -9 -2 -12 -12z"/>
<path d="M766 2343 c-6 -14 -5 -15 5 -6 7 7 10 15 7 18 -3 3 -9 -2 -12 -12z"/>
<path d="M2575 2311 c-3 -5 -2 -12 3 -15 5 -3 9 1 9 9 0 17 -3 19 -12 6z"/>
<path d="M1713 2295 c0 -8 4 -12 9 -9 5 3 6 10 3 15 -9 13 -12 11 -12 -6z"/>
<path d="M686 2263 c-6 -14 -5 -15 5 -6 7 7 10 15 7 18 -3 3 -9 -2 -12 -12z"/>
<path d="M2610 2249 c0 -5 5 -7 10 -4 6 3 10 8 10 11 0 2 -4 4 -10 4 -5 0 -10
-5 -10 -11z"/>
<path d="M647 2189 c7 -7 15 -10 18 -7 3 3 -2 9 -12 12 -14 6 -15 5 -6 -5z"/>
<path d="M1570 2150 c0 -5 5 -10 11 -10 5 0 7 5 4 10 -3 6 -8 10 -11 10 -2 0
-4 -4 -4 -10z"/>
<path d="M2630 2156 c0 -2 7 -7 16 -10 8 -3 12 -2 9 4 -6 10 -25 14 -25 6z"/>
<path d="M2635 2120 c-3 -5 -1 -10 4 -10 6 0 11 5 11 10 0 6 -2 10 -4 10 -3 0
-8 -4 -11 -10z"/>
<path d="M1705 2090 c-3 -6 1 -7 9 -4 18 7 21 14 7 14 -6 0 -13 -4 -16 -10z"/>
<path d="M1180 2030 c0 -5 5 -10 11 -10 5 0 7 5 4 10 -3 6 -8 10 -11 10 -2 0
-4 -4 -4 -10z"/>
<path d="M2036 2008 c3 -5 10 -6 15 -3 13 9 11 12 -6 12 -8 0 -12 -4 -9 -9z"/>
<path d="M2194 2009 c-4 -7 -3 -9 4 -5 5 3 13 0 15 -6 4 -9 6 -10 6 -1 1 17
-16 25 -25 12z"/>
<path d="M1068 1993 c6 -2 18 -2 25 0 6 3 1 5 -13 5 -14 0 -19 -2 -12 -5z"/>
<path d="M1590 1969 c0 -5 5 -7 10 -4 6 3 10 8 10 11 0 2 -4 4 -10 4 -5 0 -10
-5 -10 -11z"/>
<path d="M1951 1957 c-8 -10 -7 -14 2 -14 8 0 14 6 14 14 0 7 -1 13 -2 13 -2
0 -8 -6 -14 -13z"/>
<path d="M926 1952 c-3 -5 1 -9 9 -9 8 0 12 4 9 9 -3 4 -7 8 -9 8 -2 0 -6 -4
-9 -8z"/>
<path d="M1353 1941 c0 -11 5 -18 9 -15 4 3 5 11 1 19 -7 21 -12 19 -10 -4z"/>
<path d="M2675 1931 c-3 -5 -2 -12 3 -15 5 -3 9 1 9 9 0 17 -3 19 -12 6z"/>
<path d="M896 1891 c-4 -5 3 -7 14 -4 23 6 26 13 6 13 -8 0 -17 -4 -20 -9z"/>
<path d="M2676 1883 c-6 -14 -5 -15 5 -6 7 7 10 15 7 18 -3 3 -9 -2 -12 -12z"/>
<path d="M611 1881 c-8 -5 -9 -11 -3 -15 5 -3 12 1 16 9 6 17 6 18 -13 6z"/>
<path d="M1855 1750 c3 -5 8 -10 11 -10 2 0 4 5 4 10 0 6 -5 10 -11 10 -5 0
-7 -4 -4 -10z"/>
<path d="M2715 1741 c-3 -5 -2 -12 3 -15 5 -3 9 1 9 9 0 17 -3 19 -12 6z"/>
<path d="M1420 1736 c0 -2 8 -10 18 -17 15 -13 16 -12 3 4 -13 16 -21 21 -21
13z"/>
<path d="M1666 1732 c-3 -5 1 -9 9 -9 8 0 12 4 9 9 -3 4 -7 8 -9 8 -2 0 -6 -4
-9 -8z"/>
<path d="M1610 1690 c-9 -6 -10 -10 -3 -10 6 0 15 5 18 10 8 12 4 12 -15 0z"/>
<path d="M910 1681 c0 -6 4 -13 10 -16 6 -3 7 1 4 9 -7 18 -14 21 -14 7z"/>
<path d="M1670 1669 c0 -5 5 -7 10 -4 6 3 10 8 10 11 0 2 -4 4 -10 4 -5 0 -10
-5 -10 -11z"/>
<path d="M1478 1633 c7 -3 16 -2 19 1 4 3 -2 6 -13 5 -11 0 -14 -3 -6 -6z"/>
<path d="M1675 1630 c-3 -6 1 -7 9 -4 18 7 21 14 7 14 -6 0 -13 -4 -16 -10z"/>
<path d="M1596 1612 c-3 -5 1 -9 9 -9 8 0 12 4 9 9 -3 4 -7 8 -9 8 -2 0 -6 -4
-9 -8z"/>
<path d="M2116 1605 c4 -8 8 -15 10 -15 2 0 4 7 4 15 0 8 -4 15 -10 15 -5 0
-7 -7 -4 -15z"/>
<path d="M2141 1613 c-2 -20 11 -43 20 -37 5 3 9 10 9 15 0 6 -4 8 -9 4 -5 -3
-12 3 -14 12 -3 10 -5 13 -6 6z"/>
<path d="M2685 1600 c-3 -6 1 -7 9 -4 18 7 21 14 7 14 -6 0 -13 -4 -16 -10z"/>
<path d="M1755 1541 c-3 -5 -2 -12 3 -15 5 -3 9 1 9 9 0 17 -3 19 -12 6z"/>
<path d="M1836 1523 c-6 -14 -5 -15 5 -6 7 7 10 15 7 18 -3 3 -9 -2 -12 -12z"/>
<path d="M2610 1449 c0 -5 5 -7 10 -4 6 3 10 8 10 11 0 2 -4 4 -10 4 -5 0 -10
-5 -10 -11z"/>
<path d="M1773 1425 c0 -8 4 -12 9 -9 5 3 6 10 3 15 -9 13 -12 11 -12 -6z"/>
<path d="M2503 1375 c-15 -13 -25 -25 -22 -25 3 0 19 11 35 25 16 14 26 25 22
25 -4 0 -20 -11 -35 -25z"/>
<path d="M1030 1350 c0 -6 7 -10 15 -10 8 0 15 2 15 4 0 2 -7 6 -15 10 -8 3
-15 1 -15 -4z"/>
<path d="M2246 1351 c8 -9 44 -11 44 -3 0 4 -11 8 -25 8 -13 0 -22 -2 -19 -5z"/>
<path d="M817 1330 c10 -11 19 -20 21 -20 1 0 -2 9 -8 20 -6 11 -15 20 -20 20
-6 0 -2 -9 7 -20z"/>
<path d="M873 1295 c0 -8 3 -13 5 -10 3 3 12 -1 21 -7 10 -8 9 -4 -3 10 -23
26 -23 26 -23 7z"/>
<path d="M1170 1250 c0 -5 5 -10 11 -10 5 0 7 5 4 10 -3 6 -8 10 -11 10 -2 0
-4 -4 -4 -10z"/>
<path d="M1535 1230 c-3 -5 -1 -10 4 -10 6 0 11 5 11 10 0 6 -2 10 -4 10 -3 0
-8 -4 -11 -10z"/>
<path d="M1747 1219 c4 -13 8 -18 11 -10 2 7 -1 18 -6 23 -8 8 -9 4 -5 -13z"/>
<path d="M2096 1204 c-5 -14 -4 -15 9 -4 17 14 19 20 6 20 -5 0 -12 -7 -15
-16z"/>
<path d="M1736 1173 c-6 -14 -5 -15 5 -6 7 7 10 15 7 18 -3 3 -9 -2 -12 -12z"/>
<path d="M1533 1165 c0 -8 4 -12 9 -9 5 3 6 10 3 15 -9 13 -12 11 -12 -6z"/>
<path d="M2586 1152 c-3 -5 1 -9 9 -9 8 0 12 4 9 9 -3 4 -7 8 -9 8 -2 0 -6 -4
-9 -8z"/>
<path d="M1530 1136 c0 -2 7 -17 15 -32 9 -18 15 -23 15 -12 0 9 -5 20 -10 23
-6 4 -8 11 -5 16 4 5 1 9 -4 9 -6 0 -11 -2 -11 -4z"/>
<path d="M2420 1130 c-12 -7 -10 -9 7 -7 12 0 19 5 17 9 -6 10 -6 10 -24 -2z"/>
<path d="M2730 1109 c0 -5 5 -7 10 -4 6 3 10 8 10 11 0 2 -4 4 -10 4 -5 0 -10
-5 -10 -11z"/>
<path d="M1070 1096 c0 -2 7 -7 16 -10 8 -3 12 -2 9 4 -6 10 -25 14 -25 6z"/>
<path d="M1190 1096 c0 -2 8 -10 18 -17 15 -13 16 -12 3 4 -13 16 -21 21 -21
13z"/>
<path d="M326 1003 c-6 -14 -5 -15 5 -6 7 7 10 15 7 18 -3 3 -9 -2 -12 -12z"/>
<path d="M2074 999 c9 -14 13 -29 9 -32 -3 -4 -4 -7 -1 -7 3 0 12 8 19 18 7 9
10 14 5 10 -5 -4 -17 3 -28 15 l-19 22 15 -26z"/>
<path d="M2976 1007 c3 -10 9 -15 12 -12 3 3 0 11 -7 18 -10 9 -11 8 -5 -6z"/>
<path d="M2186 996 c3 -8 13 -17 22 -21 13 -5 13 -2 -3 15 -21 24 -26 25 -19
6z"/>
<path d="M1690 991 c0 -6 4 -12 8 -15 5 -3 9 1 9 9 0 8 -4 15 -9 15 -4 0 -8
-4 -8 -9z"/>
<path d="M1190 970 c0 -7 -7 -9 -16 -6 -8 3 -12 2 -9 -4 3 -6 1 -10 -6 -10 -7
0 -10 -3 -7 -6 4 -3 19 1 34 9 17 9 23 17 15 21 -6 4 -11 2 -11 -4z"/>
<path d="M2135 971 c-3 -5 -2 -12 3 -15 5 -3 9 1 9 9 0 17 -3 19 -12 6z"/>
<path d="M1590 930 c0 -5 5 -10 10 -10 6 0 10 5 10 10 0 6 -4 10 -10 10 -5 0
-10 -4 -10 -10z"/>
<path d="M663 895 c0 -8 4 -12 9 -9 5 3 6 10 3 15 -9 13 -12 11 -12 -6z"/>
<path d="M2630 901 c0 -6 4 -13 10 -16 6 -3 7 1 4 9 -7 18 -14 21 -14 7z"/>
<path d="M2675 890 c3 -5 8 -10 11 -10 2 0 4 5 4 10 0 6 -5 10 -11 10 -5 0 -7
-4 -4 -10z"/>
<path d="M521 881 c-8 -5 -9 -11 -3 -15 5 -3 12 1 16 9 6 17 6 18 -13 6z"/>
<path d="M2710 886 c0 -3 9 -10 20 -16 11 -6 20 -8 20 -6 0 3 -9 10 -20 16
-11 6 -20 8 -20 6z"/>
<path d="M434 864 c-18 -14 -18 -15 4 -4 12 6 22 13 22 15 0 8 -5 6 -26 -11z"/>
<path d="M476 868 c3 -5 10 -6 15 -3 13 9 11 12 -6 12 -8 0 -12 -4 -9 -9z"/>
<path d="M2810 868 c0 -4 4 -8 9 -8 6 0 12 4 15 8 3 5 -1 9 -9 9 -8 0 -15 -4
-15 -9z"/>
<path d="M315 860 c-3 -5 -1 -10 4 -10 6 0 11 5 11 10 0 6 -2 10 -4 10 -3 0
-8 -4 -11 -10z"/>
<path d="M345 861 c-3 -5 -2 -12 3 -15 5 -3 9 1 9 9 0 17 -3 19 -12 6z"/>
<path d="M280 856 c0 -2 8 -10 18 -17 15 -13 16 -12 3 4 -13 16 -21 21 -21 13z"/>
<path d="M3035 850 c-3 -5 -1 -10 4 -10 6 0 11 5 11 10 0 6 -2 10 -4 10 -3 0
-8 -4 -11 -10z"/>
<path d="M799 823 c-13 -16 -12 -17 4 -4 9 7 17 15 17 17 0 8 -8 3 -21 -13z"/>
<path d="M932 824 c10 -10 20 -16 22 -13 3 3 -5 11 -17 18 -21 13 -21 12 -5
-5z"/>
<path d="M1820 826 c0 -2 8 -10 18 -17 15 -13 16 -12 3 4 -13 16 -21 21 -21
13z"/>
<path d="M1856 815 c4 -8 10 -15 16 -15 5 0 6 -4 3 -10 -3 -6 1 -7 9 -4 21 8
20 9 -9 28 -21 14 -24 14 -19 1z"/>
<path d="M1675 810 c3 -5 8 -10 11 -10 2 0 4 5 4 10 0 6 -5 10 -11 10 -5 0 -7
-4 -4 -10z"/>
<path d="M1410 795 c6 -8 18 -11 26 -8 18 7 13 12 -16 18 -18 3 -20 2 -10 -10z"/>
<path d="M2186 787 c3 -10 9 -15 12 -12 3 3 0 11 -7 18 -10 9 -11 8 -5 -6z"/>
<path d="M1417 759 c7 -7 15 -10 18 -7 3 3 -2 9 -12 12 -14 6 -15 5 -6 -5z"/>
<path d="M1173 745 c0 -8 4 -12 9 -9 5 3 6 10 3 15 -9 13 -12 11 -12 -6z"/>
<path d="M2028 693 c7 -3 16 -2 19 1 4 3 -2 6 -13 5 -11 0 -14 -3 -6 -6z"/>
</g>
</svg>
